<?xml version="1.0" encoding="UTF-8"?>
<!DOCTYPE svg PUBLIC "-//W3C//DTD SVG 1.1//EN" "http://www.w3.org/Graphics/SVG/1.1/DTD/svg11.dtd">
<svg xmlns="http://www.w3.org/2000/svg" version="1.1" width="1024px" height="1024px" style="shape-rendering:geometricPrecision; text-rendering:geometricPrecision; image-rendering:optimizeQuality; fill-rule:evenodd; clip-rule:evenodd" xmlns:xlink="http://www.w3.org/1999/xlink">
<g><path style="opacity:1" fill="#fbf5eb" d="M -0.5,-0.5 C 340.833,-0.5 682.167,-0.5 1023.5,-0.5C 1023.5,340.833 1023.5,682.167 1023.5,1023.5C 682.167,1023.5 340.833,1023.5 -0.5,1023.5C -0.5,682.167 -0.5,340.833 -0.5,-0.5 Z"/></g>
<g><path style="opacity:1" fill="#faf8f4" d="M 522.5,246.5 C 522.5,313.5 522.5,380.5 522.5,447.5C 536.323,448.496 550.323,448.829 564.5,448.5C 564.5,464.5 564.5,480.5 564.5,496.5C 534.5,496.5 504.5,496.5 474.5,496.5C 474.5,495.833 474.5,495.167 474.5,494.5C 475.333,434.668 475.833,374.668 476,314.5C 476.5,374.499 476.667,434.499 476.5,494.5C 505.167,494.5 533.833,494.5 562.5,494.5C 562.5,479.5 562.5,464.5 562.5,449.5C 548.833,449.5 535.167,449.5 521.5,449.5C 521.167,381.665 521.501,313.998 522.5,246.5 Z"/></g>
<g><path style="opacity:1" fill="#7b6231" d="M 526.5,248.5 C 525.504,248.586 524.671,248.252 524,247.5C 523.169,314.07 523.336,380.57 524.5,447C 523.906,447.464 523.239,447.631 522.5,447.5C 522.5,380.5 522.5,313.5 522.5,246.5C 522.435,246.062 522.601,245.728 523,245.5C 524.518,246.163 525.685,247.163 526.5,248.5 Z"/></g>
<g><path style="opacity:1" fill="#fdfdfc" d="M 621.5,308.5 C 628.024,311.515 634.191,315.181 640,319.5C 640.667,445.833 640.667,572.167 640,698.5C 612.326,699.003 584.659,699.336 557,699.5C 545.479,699.499 534.313,698.832 523.5,697.5C 537.167,697.5 550.833,697.5 564.5,697.5C 589.5,697.5 614.5,697.5 639.5,697.5C 639.667,571.833 639.5,446.166 639,320.5C 635.689,318.097 632.189,316.097 628.5,314.5C 626.167,312.5 623.833,310.5 621.5,308.5 Z"/></g>
<g><path style="opacity:1" fill="#826b42" d="M 628.5,314.5 C 632.189,316.097 635.689,318.097 639,320.5C 639.5,446.166 639.667,571.833 639.5,697.5C 614.5,697.5 589.5,697.5 564.5,697.5C 564.5,697.167 564.5,696.833 564.5,696.5C 588.833,696.5 613.167,696.5 637.5,696.5C 637.5,690.833 637.5,685.167 637.5,679.5C 637.833,559.831 637.5,440.165 636.5,320.5C 633.508,318.829 630.841,316.829 628.5,314.5 Z"/></g>
<g><path style="opacity:1" fill="#917d61" d="M 473.5,316.5 C 473.5,443.167 473.5,569.833 473.5,696.5C 455.167,696.5 436.833,696.5 418.5,696.5C 418.783,695.711 419.283,695.044 420,694.5C 421.83,694.333 423.83,694.666 426,695.5C 432.049,694.806 433.715,691.806 431,686.5C 430.085,687.328 429.419,688.328 429,689.5C 428.5,688.333 427.667,687.5 426.5,687C 428.061,686.682 429.228,685.849 430,684.5C 431.314,685.313 432.481,686.313 433.5,687.5C 434.934,686.064 436.1,684.398 437,682.5C 437.353,683.672 437.187,684.838 436.5,686C 436.905,686.945 437.572,687.612 438.5,688C 437.386,689.449 436.386,690.783 435.5,692C 439.292,694.296 443.459,695.463 448,695.5C 449.981,695.371 451.647,694.704 453,693.5C 457.143,696.093 460.477,696.093 463,693.5C 464.152,695.512 465.318,695.678 466.5,694C 464.578,692.54 463.911,690.873 464.5,689C 465.357,688.311 466.023,687.478 466.5,686.5C 465.635,686.436 464.635,686.103 463.5,685.5C 462.614,686.325 462.281,687.325 462.5,688.5C 460.692,688.509 459.025,688.009 457.5,687C 459.044,686.71 460.377,686.044 461.5,685C 460.751,683.266 460.251,681.433 460,679.5C 459.51,680.793 459.343,682.127 459.5,683.5C 458.5,683.5 457.5,683.5 456.5,683.5C 455.265,685.773 455.598,687.606 457.5,689C 456.251,690.824 455.085,690.657 454,688.5C 450.615,690.061 449.949,689.394 452,686.5C 452.893,687.711 453.726,687.711 454.5,686.5C 453.624,685.749 452.624,685.249 451.5,685C 453.5,684 455.5,683 457.5,682C 458.337,680.989 458.67,679.822 458.5,678.5C 459.5,678.5 460.5,678.5 461.5,678.5C 461.819,676.25 461.319,674.25 460,672.5C 459.508,673.549 459.674,674.549 460.5,675.5C 460.167,676.5 459.5,677.167 458.5,677.5C 457.145,675.071 455.478,673.738 453.5,673.5C 455.862,672.729 458.196,671.895 460.5,671C 459.366,669.984 459.699,669.317 461.5,669C 460.529,667.796 459.529,667.296 458.5,667.5C 459.025,666.808 459.692,666.308 460.5,666C 459.207,665.51 457.873,665.343 456.5,665.5C 456.329,662.512 457.662,660.512 460.5,659.5C 459.482,658.148 458.149,657.148 456.5,656.5C 457.023,654.164 456.523,651.83 455,649.5C 454.346,650.696 453.846,650.696 453.5,649.5C 456.469,648.348 458.302,646.681 459,644.5C 458.464,642.553 458.798,640.553 460,638.5C 460.359,641.544 461.026,641.878 462,639.5C 463.309,641.891 464.309,641.891 465,639.5C 465.483,640.448 465.649,641.448 465.5,642.5C 464.448,642.351 463.448,642.517 462.5,643C 463.943,644.067 465.276,645.234 466.5,646.5C 467.731,647.651 467.731,648.817 466.5,650C 467.167,650.333 467.833,650.667 468.5,651C 466.248,650.388 463.915,650.055 461.5,650C 462.083,653.082 462.083,656.415 461.5,660C 461.833,660.5 462.167,661 462.5,661.5C 463.696,661.154 463.696,660.654 462.5,660C 464.934,658.4 467.268,657.567 469.5,657.5C 468.271,656.719 466.938,656.219 465.5,656C 466.191,654.933 466.691,653.766 467,652.5C 468.655,652.802 469.988,654.136 471,656.5C 471.333,655.833 471.667,655.167 472,654.5C 472.833,642.819 472.666,631.152 471.5,619.5C 471.002,620.603 470.669,621.603 470.5,622.5C 468.267,622.136 466.434,621.136 465,619.5C 463.605,620.815 462.605,620.481 462,618.5C 463.302,621.083 463.969,623.75 464,626.5C 465.396,622.324 466.896,621.991 468.5,625.5C 465.517,625.95 463.351,627.95 462,631.5C 460.887,630.24 460.72,629.073 461.5,628C 459.981,626.782 458.814,625.282 458,623.5C 457.667,623.833 457.333,624.167 457,624.5C 457.077,623.262 456.911,622.262 456.5,621.5C 455.253,623.006 455.253,624.506 456.5,626C 453.712,628.374 454.046,629.707 457.5,630C 455.606,631.079 455.273,632.413 456.5,634C 454.64,635.86 452.806,637.694 451,639.5C 449.171,637.107 449.337,634.773 451.5,632.5C 451.167,632.167 450.833,631.833 450.5,631.5C 447.892,636.605 445.059,636.605 442,631.5C 441.5,632.667 440.667,633.5 439.5,634C 440.516,634.519 441.182,635.353 441.5,636.5C 440.751,638.241 440.417,639.908 440.5,641.5C 438.973,639.807 437.64,637.973 436.5,636C 437.167,635.333 437.833,634.667 438.5,634C 435.756,634.991 433.089,634.657 430.5,633C 431.333,631.5 432.5,630.333 434,629.5C 434.253,626.118 435.086,622.951 436.5,620C 436.245,618.674 435.578,617.674 434.5,617C 436.208,615.938 436.874,614.771 436.5,613.5C 437.799,614.09 438.632,615.09 439,616.5C 439.219,615.062 439.719,613.729 440.5,612.5C 440.488,614.412 440.821,616.412 441.5,618.5C 439.142,620.024 437.309,622.024 436,624.5C 435.544,625.744 436.044,626.577 437.5,627C 436.044,627.423 435.544,628.256 436,629.5C 437.779,628.521 439.445,628.854 441,630.5C 441.333,629.833 441.667,629.167 442,628.5C 442.718,629.451 443.551,629.617 444.5,629C 445.211,627.745 446.044,626.579 447,625.5C 446.822,627.44 447.822,629.107 450,630.5C 451.406,629.332 452.572,629.665 453.5,631.5C 453.833,631.333 454.167,631.167 454.5,631C 453.809,629.933 453.309,628.766 453,627.5C 451.989,628.337 450.822,628.67 449.5,628.5C 449.48,626.857 450.147,625.524 451.5,624.5C 451,623.5 450.5,622.5 450,621.5C 449.107,622.711 448.274,622.711 447.5,621.5C 448.5,620.667 449.5,619.833 450.5,619C 449.663,617.989 449.33,616.822 449.5,615.5C 444.206,615.318 444.206,614.818 449.5,614C 448.328,613.581 447.328,612.915 446.5,612C 447.711,611.107 447.711,610.274 446.5,609.5C 442.419,610.093 440.419,608.093 440.5,603.5C 444.168,602.444 447.835,601.278 451.5,600C 450.549,599.282 450.383,598.449 451,597.5C 452.585,598.376 453.585,599.709 454,601.5C 454.309,600.234 454.809,599.067 455.5,598C 454.328,597.581 453.328,596.915 452.5,596C 454.037,594.89 454.703,593.39 454.5,591.5C 451.402,591.413 451.068,591.913 453.5,593C 452.234,593.309 451.067,593.809 450,594.5C 450.148,593.175 449.982,592.008 449.5,591C 446.638,590.73 443.972,589.896 441.5,588.5C 442.074,586.941 442.74,585.441 443.5,584C 443.167,583.833 442.833,583.667 442.5,583.5C 441.643,584.736 440.977,586.069 440.5,587.5C 438.253,588.245 436.42,589.578 435,591.5C 433.741,588.974 433.741,586.641 435,584.5C 435.914,585.654 436.747,585.487 437.5,584C 436.044,583.577 435.544,582.744 436,581.5C 437.593,583.285 439.093,583.452 440.5,582C 437.772,581.361 437.272,580.194 439,578.5C 439.333,579.167 439.667,579.833 440,580.5C 441.353,579.315 442.52,577.981 443.5,576.5C 444.243,577.908 445.077,579.241 446,580.5C 446.333,580.167 446.667,579.833 447,579.5C 447.492,580.549 447.326,581.549 446.5,582.5C 449.944,583.563 451.444,582.229 451,578.5C 449.927,579.28 448.76,579.113 447.5,578C 448.362,575.266 449.195,575.099 450,577.5C 450.402,576.128 450.902,574.795 451.5,573.5C 450.833,573.167 450.167,572.833 449.5,572.5C 449.833,571.833 450.167,571.167 450.5,570.5C 449.753,570.264 448.92,569.93 448,569.5C 448.019,571.107 448.185,572.774 448.5,574.5C 444.71,574.992 444.044,574.159 446.5,572C 445.529,570.796 444.529,570.296 443.5,570.5C 446.319,568.718 448.319,566.218 449.5,563C 448.376,562.751 447.376,562.251 446.5,561.5C 448.336,560.081 450.336,558.914 452.5,558C 451.531,556.242 450.364,555.742 449,556.5C 449.325,554.447 448.991,552.447 448,550.5C 450.232,551.187 452.398,551.521 454.5,551.5C 453.167,552.167 451.833,552.833 450.5,553.5C 451.932,553.585 453.265,554.585 454.5,556.5C 455.747,558.042 455.747,559.542 454.5,561C 455.731,562.967 456.731,562.801 457.5,560.5C 456.515,558.902 456.349,557.235 457,555.5C 458.297,558.631 460.464,560.964 463.5,562.5C 465.488,561.711 465.821,560.545 464.5,559C 465.191,557.933 465.691,556.766 466,555.5C 466.5,556 467,556.5 467.5,557C 467.335,558.117 467.002,559.284 466.5,560.5C 467.025,561.192 467.692,561.692 468.5,562C 466.833,564.333 465.167,566.667 463.5,569C 465.409,569.448 466.576,568.615 467,566.5C 467.333,567.5 467.667,568.5 468,569.5C 469.204,568.529 469.704,567.529 469.5,566.5C 470.799,567.09 471.632,568.09 472,569.5C 472.558,549.467 472.392,529.467 471.5,509.5C 469.449,509.522 467.283,510.189 465,511.5C 464.228,511.355 463.561,511.022 463,510.5C 462,512.167 461,513.833 460,515.5C 459.138,513.913 458.471,512.246 458,510.5C 457.626,511.416 457.126,512.25 456.5,513C 459.212,516.744 458.712,517.244 455,514.5C 455.522,516.049 455.355,517.549 454.5,519C 452.847,521.821 450.847,524.321 448.5,526.5C 447.808,525.975 447.308,525.308 447,524.5C 445.343,526.567 443.676,527.9 442,528.5C 441.676,526.431 440.842,526.098 439.5,527.5C 437.885,526.846 436.218,526.346 434.5,526C 436.891,525.309 436.891,524.309 434.5,523C 435.715,520.904 436.549,521.071 437,523.5C 437.5,523 438,522.5 438.5,522C 437.417,519.944 435.75,518.611 433.5,518C 434.572,516.716 435.905,516.383 437.5,517C 436.396,515.869 436.729,515.035 438.5,514.5C 437.861,518.069 439.528,520.236 443.5,521C 442.304,521.654 442.304,522.154 443.5,522.5C 445.5,521.5 447.5,520.5 449.5,519.5C 450.675,520.855 451.675,520.688 452.5,519C 452,518.5 451.5,518 451,517.5C 450,517.833 449,518.167 448,518.5C 446.77,517.725 446.437,516.725 447,515.5C 449.573,516.983 451.74,516.483 453.5,514C 449.624,514.349 449.624,513.516 453.5,511.5C 452.833,511.167 452.167,510.833 451.5,510.5C 453.179,509.218 455.013,508.218 457,507.5C 457.333,507.833 457.667,508.167 458,508.5C 458.645,507.354 459.478,506.354 460.5,505.5C 456.97,503.51 457.303,502.677 461.5,503C 460.892,502.13 460.059,501.63 459,501.5C 457.056,502.688 455.556,504.354 454.5,506.5C 452.844,508.022 451.677,507.689 451,505.5C 450.171,502.326 451.171,501.326 454,502.5C 454.923,501.241 455.757,499.908 456.5,498.5C 457.609,499.59 458.609,499.59 459.5,498.5C 458.833,497.5 458.167,496.5 457.5,495.5C 459.446,493.848 461.446,493.015 463.5,493C 461.754,492.529 460.087,491.862 458.5,491C 458.833,490.667 459.167,490.333 459.5,490C 458.261,485.335 457.428,485.502 457,490.5C 456.193,486.551 455.693,486.551 455.5,490.5C 454.178,490.67 453.011,490.337 452,489.5C 451.333,490.5 451.333,491.5 452,492.5C 452.333,492.167 452.667,491.833 453,491.5C 453.273,493.101 453.773,494.601 454.5,496C 453.167,496.667 451.833,496.667 450.5,496C 450.096,492.597 450.096,489.097 450.5,485.5C 450.833,484.833 451.167,484.167 451.5,483.5C 453.35,484.242 454.016,485.242 453.5,486.5C 454.354,485.478 455.354,484.645 456.5,484C 452.804,482.031 448.804,481.031 444.5,481C 444.975,479.394 446.309,477.894 448.5,476.5C 449.451,477.326 450.451,477.492 451.5,477C 448.721,474.237 446.721,474.403 445.5,477.5C 444.5,478 443.5,478.5 442.5,479C 442.833,479.333 443.167,479.667 443.5,480C 441.789,481.133 441.289,482.633 442,484.5C 442.725,482.842 443.892,482.342 445.5,483C 444.833,483.333 444.167,483.667 443.5,484C 444.956,484.423 445.456,485.256 445,486.5C 443.602,485.949 442.268,485.616 441,485.5C 441.667,486.833 442.333,488.167 443,489.5C 441.39,489.87 439.89,489.203 438.5,487.5C 438.243,484.624 439.243,481.957 441.5,479.5C 440.603,479.331 439.603,478.998 438.5,478.5C 439.811,477.742 440.311,476.742 440,475.5C 438.038,475.969 436.205,475.303 434.5,473.5C 435.688,473.693 437.022,473.193 438.5,472C 435.766,471.282 435.1,469.782 436.5,467.5C 437.251,468.376 437.751,469.376 438,470.5C 439.558,468.641 441.391,467.141 443.5,466C 441.757,464.89 440.424,463.39 439.5,461.5C 439.467,462.989 438.967,464.322 438,465.5C 437.138,463.279 435.971,462.112 434.5,462C 435.237,459.201 436.07,459.034 437,461.5C 437.75,460.874 438.584,460.374 439.5,460C 438.692,459.692 438.025,459.192 437.5,458.5C 439.149,457.852 440.482,456.852 441.5,455.5C 440.975,454.808 440.308,454.308 439.5,454C 440.554,452.612 440.72,451.112 440,449.5C 437.131,446.505 434.131,446.172 431,448.5C 429.989,448.108 429.489,447.441 429.5,446.5C 428.713,447.242 428.047,448.075 427.5,449C 426.668,449.688 426.002,449.521 425.5,448.5C 427.367,446.964 428.034,445.297 427.5,443.5C 428.192,444.025 428.692,444.692 429,445.5C 431.163,442.87 433.33,442.203 435.5,443.5C 434.624,444.251 433.624,444.751 432.5,445C 434.433,445.783 435.933,445.283 437,443.5C 437.914,444.654 438.747,444.487 439.5,443C 439.167,442.667 438.833,442.333 438.5,442C 440.134,441.506 441.801,441.34 443.5,441.5C 443.66,443.199 443.494,444.866 443,446.5C 441.705,445.159 441.205,443.826 441.5,442.5C 438.833,444.5 438.833,446.5 441.5,448.5C 448.872,444.033 450.872,445.866 447.5,454C 447.833,454.167 448.167,454.333 448.5,454.5C 449.271,452.138 450.105,449.804 451,447.5C 451.984,449.795 452.817,449.461 453.5,446.5C 452.313,446.446 450.98,446.113 449.5,445.5C 450.685,444.147 452.019,442.98 453.5,442C 452.833,441.667 452.167,441.333 451.5,441C 452.893,439.829 453.727,438.329 454,436.5C 454.333,437.5 454.667,438.5 455,439.5C 456.706,438.692 457.539,437.359 457.5,435.5C 456.448,435.649 455.448,435.483 454.5,435C 455.28,433.927 455.113,432.76 454,431.5C 453.436,435.914 451.603,436.581 448.5,433.5C 447.304,433.846 447.304,434.346 448.5,435C 446.671,435.273 445.171,436.107 444,437.5C 443.607,435.801 444.107,434.301 445.5,433C 445.095,432.055 444.428,431.388 443.5,431C 444.624,430.751 445.624,430.251 446.5,429.5C 445.674,428.549 445.508,427.549 446,426.5C 446.667,425.167 447.333,425.167 448,426.5C 448.318,424.939 449.151,423.772 450.5,423C 448.621,421.556 446.955,422.056 445.5,424.5C 444.813,426.274 443.98,427.941 443,429.5C 442.047,427.545 440.713,425.878 439,424.5C 439.148,425.825 438.982,426.992 438.5,428C 439.5,428.333 440.5,428.667 441.5,429C 436.298,430.352 436.298,431.518 441.5,432.5C 441.154,433.696 440.654,433.696 440,432.5C 436.196,435.603 434.863,434.936 436,430.5C 433.827,433.277 433.327,433.11 434.5,430C 433.638,427.266 432.805,427.099 432,429.5C 430.796,428.529 430.296,427.529 430.5,426.5C 429.692,428.423 429.192,430.423 429,432.5C 428.727,430.899 428.227,429.399 427.5,428C 429.055,426.417 430.222,424.584 431,422.5C 431.359,425.544 432.026,425.878 433,423.5C 433.915,424.328 434.581,425.328 435,426.5C 435.75,425.874 436.584,425.374 437.5,425C 436.951,421.695 436.451,418.195 436,414.5C 435.418,417.668 434.418,418.001 433,415.5C 431.982,416.706 431.482,416.373 431.5,414.5C 432.169,411.972 433.002,411.972 434,414.5C 434.333,413.833 434.667,413.167 435,412.5C 435.893,413.711 436.726,413.711 437.5,412.5C 436.371,410.471 436.871,410.137 439,411.5C 440.205,410.929 441.372,410.262 442.5,409.5C 441.282,409.891 440.448,409.224 440,407.5C 439.577,408.956 438.744,409.456 437.5,409C 438.673,405.89 438.173,405.723 436,408.5C 434.368,406.973 434.201,405.307 435.5,403.5C 435.911,404.262 436.077,405.262 436,406.5C 436.833,405.667 437.667,404.833 438.5,404C 437.22,401.868 437.22,399.702 438.5,397.5C 437.833,396.5 437.167,395.5 436.5,394.5C 438.193,393.772 439.693,392.772 441,391.5C 442.633,392.83 444.133,393.496 445.5,393.5C 443.726,394.187 442.059,395.02 440.5,396C 443.648,395.694 446.648,395.86 449.5,396.5C 450.696,396.154 450.696,395.654 449.5,395C 450.5,394.667 451.5,394.333 452.5,394C 451.663,392.989 451.33,391.822 451.5,390.5C 453.433,390.729 455.1,391.562 456.5,393C 455.742,394.364 456.242,395.531 458,396.5C 459.813,395.391 460.646,396.058 460.5,398.5C 462.167,398.5 463.833,398.5 465.5,398.5C 465.281,397.325 465.614,396.325 466.5,395.5C 467.253,397.511 468.753,399.511 471,401.5C 471.167,400.833 471.333,400.167 471.5,399.5C 470,397.167 468.5,394.833 467,392.5C 465.491,392.923 463.991,394.09 462.5,396C 462.833,396.333 463.167,396.667 463.5,397C 462.517,397.591 461.85,397.257 461.5,396C 462.782,393.319 464.282,390.819 466,388.5C 467.816,390.441 469.816,391.108 472,390.5C 472.667,382.833 472.667,375.167 472,367.5C 470.663,369.004 468.996,370.004 467,370.5C 466.833,370.167 466.667,369.833 466.5,369.5C 468.54,367.823 470.54,366.156 472.5,364.5C 467.318,363.224 467.318,362.557 472.5,362.5C 472.666,356.491 472.499,350.491 472,344.5C 471.327,347.687 470.827,351.021 470.5,354.5C 468.898,355.55 468.065,354.883 468,352.5C 467.51,353.793 467.343,355.127 467.5,356.5C 470.598,356.413 470.932,356.913 468.5,358C 468.957,358.414 469.291,358.914 469.5,359.5C 468.284,360.096 466.951,360.263 465.5,360C 466.833,360.667 466.833,361.333 465.5,362C 463.5,362.333 461.5,362.667 459.5,363C 460.167,363.333 460.833,363.667 461.5,364C 460.167,364.667 460.167,365.333 461.5,366C 460.256,366.456 459.423,365.956 459,364.5C 457.157,367.653 457.99,368.82 461.5,368C 463.125,368.853 463.458,369.853 462.5,371C 463.253,372.487 464.086,372.654 465,371.5C 465.333,372.167 465.667,372.833 466,373.5C 466.667,372.167 467.667,371.167 469,370.5C 469.456,371.744 468.956,372.577 467.5,373C 468.5,373.333 469.5,373.667 470.5,374C 468.939,374.318 467.772,375.151 467,376.5C 465.984,375.366 465.317,375.699 465,377.5C 463.869,376.396 463.035,376.729 462.5,378.5C 462.709,379.086 463.043,379.586 463.5,380C 462.069,380.465 460.903,381.299 460,382.5C 460.333,380.167 460.667,377.833 461,375.5C 458.482,379.398 455.982,379.398 453.5,375.5C 455.325,374.429 456.492,375.096 457,377.5C 458.615,376.344 458.615,375.011 457,373.5C 455.992,373.018 454.825,372.852 453.5,373C 454.696,372.346 454.696,371.846 453.5,371.5C 452.459,373.991 451.626,373.991 451,371.5C 449.316,373.351 447.483,375.018 445.5,376.5C 444.352,374.851 443.019,373.351 441.5,372C 443.901,371.195 443.734,370.362 441,369.5C 440.667,369.833 440.333,370.167 440,370.5C 438.599,368.854 438.432,367.187 439.5,365.5C 440.914,366.465 441.747,367.465 442,368.5C 443.966,366.956 446.132,365.79 448.5,365C 446.888,364.28 445.388,364.446 444,365.5C 443.544,364.256 444.044,363.423 445.5,363C 443.349,360.979 441.849,361.479 441,364.5C 440.333,361.833 439.667,361.833 439,364.5C 438.667,364.167 438.333,363.833 438,363.5C 437.097,364.701 435.931,365.535 434.5,366C 435.833,367.84 435.666,368.34 434,367.5C 433.212,365.835 432.878,364.169 433,362.5C 433.333,362.833 433.667,363.167 434,363.5C 435.399,362.773 436.899,362.273 438.5,362C 436.616,361.784 434.949,361.117 433.5,360C 434.167,359.333 434.833,358.667 435.5,358C 434.209,355.91 434.876,354.576 437.5,354C 436.167,353.667 434.833,353.333 433.5,353C 434.536,351.383 435.703,351.216 437,352.5C 439.709,351.176 440.042,349.51 438,347.5C 437.517,348.448 437.351,349.448 437.5,350.5C 433.944,350.725 433.61,349.892 436.5,348C 435.14,345.36 433.807,345.193 432.5,347.5C 431.479,346.998 431.312,346.332 432,345.5C 433.438,344.282 435.105,343.615 437,343.5C 439.154,344.252 441.32,344.419 443.5,344C 442.376,343.751 441.376,343.251 440.5,342.5C 441.908,341.757 443.241,340.923 444.5,340C 443.549,339.282 443.383,338.449 444,337.5C 445.992,336.672 447.492,335.339 448.5,333.5C 456.623,327.599 464.956,321.932 473.5,316.5 Z"/></g>
<g><path style="opacity:1" fill="#fefdfd" d="M 372.5,382.5 C 372.5,487.5 372.5,592.5 372.5,697.5C 372.19,698.738 371.69,698.738 371,697.5C 370.333,592.833 370.333,488.167 371,383.5C 371.333,382.833 371.667,382.167 372,381.5C 372.399,381.728 372.565,382.062 372.5,382.5 Z"/></g>
<g><path style="opacity:1" fill="#988366" d="M 628.5,314.5 C 630.841,316.829 633.508,318.829 636.5,320.5C 637.5,440.165 637.833,559.831 637.5,679.5C 636.255,678.398 634.922,677.398 633.5,676.5C 632.685,678.276 631.518,678.943 630,678.5C 628.707,680.286 628.207,681.953 628.5,683.5C 626.964,682.064 625.297,681.231 623.5,681C 627.193,678.676 630.526,676.509 633.5,674.5C 631.922,673.702 630.256,673.202 628.5,673C 629.833,672.667 631.167,672.333 632.5,672C 631.044,669.734 630.21,667.234 630,664.5C 629.804,666.286 628.971,667.619 627.5,668.5C 626.396,667.369 626.729,666.535 628.5,666C 627.351,664.256 626.017,664.089 624.5,665.5C 623.522,665.023 622.689,664.357 622,663.5C 621.729,665.807 622.895,666.974 625.5,667C 623.597,668.828 621.764,668.661 620,666.5C 619.376,664.536 619.876,662.869 621.5,661.5C 620.098,660.158 620.431,659.324 622.5,659C 620.892,658.342 619.725,658.842 619,660.5C 617.128,659.176 616.295,657.676 616.5,656C 617.744,655.544 618.577,656.044 619,657.5C 619.928,655.665 621.094,655.332 622.5,656.5C 623.583,655.635 623.749,654.635 623,653.5C 621.201,653.721 619.368,654.054 617.5,654.5C 615.866,654.032 614.7,653.032 614,651.5C 613.529,653.246 612.862,654.913 612,656.5C 611.25,655.874 610.416,655.374 609.5,655C 610.672,654.581 611.672,653.915 612.5,653C 611.167,652.333 611.167,651.667 612.5,651C 611.167,651 609.833,651 608.5,651C 609.517,649.951 609.684,648.784 609,647.5C 608.667,648.167 608.333,648.833 608,649.5C 605.684,647.541 603.684,647.541 602,649.5C 600.355,649.307 598.521,649.14 596.5,649C 597.624,648.751 598.624,648.251 599.5,647.5C 598.41,646.391 598.41,645.391 599.5,644.5C 601.915,645.305 604.249,646.305 606.5,647.5C 607.354,646.478 608.354,645.645 609.5,645C 608.529,643.796 607.529,643.296 606.5,643.5C 607.035,641.729 607.869,641.396 609,642.5C 608.844,639.741 607.344,637.907 604.5,637C 605.167,636.667 605.833,636.333 606.5,636C 605.289,635.107 605.289,634.274 606.5,633.5C 608.561,631.437 610.894,629.77 613.5,628.5C 612.833,628.167 612.167,627.833 611.5,627.5C 612.711,626.28 612.711,625.113 611.5,624C 612.167,623.333 612.833,623.333 613.5,624C 614.313,625.314 615.313,626.481 616.5,627.5C 615.59,630.886 616.59,631.719 619.5,630C 617.519,629.395 617.185,628.395 618.5,627C 617.672,626.085 616.672,625.419 615.5,625C 616.167,624.667 616.833,624.333 617.5,624C 616.809,622.933 616.309,621.766 616,620.5C 613.833,622.464 611.499,622.798 609,621.5C 608.535,622.931 607.701,624.097 606.5,625C 607.634,626.016 607.301,626.683 605.5,627C 605.847,628.569 606.014,630.402 606,632.5C 605.299,630.238 604.132,629.238 602.5,629.5C 603.025,628.808 603.692,628.308 604.5,628C 603,625.833 601.833,626 601,628.5C 600.355,627.354 599.522,626.354 598.5,625.5C 598.846,624.304 599.346,624.304 600,625.5C 600.333,624.5 600.667,623.5 601,622.5C 602.295,626.084 603.795,626.25 605.5,623C 605.043,622.586 604.709,622.086 604.5,621.5C 605.5,620.833 606.5,620.167 607.5,619.5C 607.333,619.167 607.167,618.833 607,618.5C 605.601,619.227 604.101,619.727 602.5,620C 603.517,621.049 603.684,622.216 603,623.5C 601.657,619.639 600.157,619.639 598.5,623.5C 597.319,621.865 597.319,620.198 598.5,618.5C 600.046,617.316 601.713,616.316 603.5,615.5C 602.624,614.749 601.624,614.249 600.5,614C 601.833,612.667 601.833,611.333 600.5,610C 601.167,609.667 601.833,609.333 602.5,609C 599.242,608.997 596.575,607.83 594.5,605.5C 595.833,604.167 597.167,602.833 598.5,601.5C 597.753,601.264 596.92,600.93 596,600.5C 595.331,603.028 594.498,603.028 593.5,600.5C 594.376,599.749 595.376,599.249 596.5,599C 596.167,598.667 595.833,598.333 595.5,598C 596.5,597 597.5,596 598.5,595C 597.833,594.667 597.167,594.333 596.5,594C 597.833,593.667 599.167,593.333 600.5,593C 598.703,592.769 597.036,591.936 595.5,590.5C 595.167,591.167 594.833,591.833 594.5,592.5C 593.803,590.615 592.803,590.282 591.5,591.5C 590.63,589.593 589.63,587.76 588.5,586C 588.833,585.5 589.167,585 589.5,584.5C 590.167,585.167 590.833,585.833 591.5,586.5C 591.736,585.753 592.07,584.92 592.5,584C 590.913,582.27 588.58,580.603 585.5,579C 586.956,578.577 587.456,577.744 587,576.5C 584.909,577.5 583.243,576.833 582,574.5C 581.667,575.167 581.333,575.833 581,576.5C 581.448,573.577 581.614,570.744 581.5,568C 580.747,566.513 579.914,566.346 579,567.5C 577.56,566.07 577.226,564.403 578,562.5C 578.667,564.5 580,565.833 582,566.5C 582.667,565.5 582.667,564.5 582,563.5C 581.346,564.696 580.846,564.696 580.5,563.5C 582.185,561.983 583.685,560.316 585,558.5C 586.687,561.468 587.854,564.635 588.5,568C 588.85,569.257 589.517,569.591 590.5,569C 589.274,566.399 589.94,565.565 592.5,566.5C 593.799,565.91 594.632,564.91 595,563.5C 595.414,563.957 595.914,564.291 596.5,564.5C 597.357,563.264 598.023,561.931 598.5,560.5C 597.738,560.089 596.738,559.923 595.5,560C 596.833,558.667 598.167,557.333 599.5,556C 598.216,555.316 597.049,555.483 596,556.5C 595.026,554.122 594.359,554.456 594,557.5C 593.654,555.782 593.154,554.115 592.5,552.5C 595.048,550.075 597.715,548.575 600.5,548C 598.089,546.411 595.922,546.911 594,549.5C 592.164,547.396 589.998,547.062 587.5,548.5C 588.397,548.669 589.397,549.002 590.5,549.5C 587.873,551.958 586.04,551.292 585,547.5C 584.333,548.833 583.333,549.833 582,550.5C 581.535,549.069 580.701,547.903 579.5,547C 581.481,546.395 581.815,545.395 580.5,544C 582.409,543.552 583.576,544.385 584,546.5C 585.074,545.382 586.24,544.382 587.5,543.5C 585.615,542.803 585.282,541.803 586.5,540.5C 585.975,539.808 585.308,539.308 584.5,539C 584.833,538.667 585.167,538.333 585.5,538C 582.729,538.347 580.062,538.18 577.5,537.5C 577.66,535.801 577.494,534.134 577,532.5C 576.418,536.251 574.251,537.918 570.5,537.5C 570.36,535.876 571.027,534.71 572.5,534C 571.019,533.02 569.685,531.853 568.5,530.5C 571.212,530.68 573.378,530.68 575,530.5C 576.23,529.725 576.563,528.725 576,527.5C 574.736,527.64 573.569,527.64 572.5,527.5C 576.417,524.388 578.25,525.055 578,529.5C 578.667,530.833 579.333,530.833 580,529.5C 581.528,531.908 583.028,534.242 584.5,536.5C 585.82,534.73 587.32,534.397 589,535.5C 589.667,534.5 589.667,533.5 589,532.5C 587.301,533.406 585.467,533.739 583.5,533.5C 583.67,532.178 583.337,531.011 582.5,530C 583.308,529.692 583.975,529.192 584.5,528.5C 583.726,527.289 582.893,527.289 582,528.5C 580,525.833 578,523.167 576,520.5C 575.383,521.449 575.549,522.282 576.5,523C 575.275,523.563 574.275,523.23 573.5,522C 574.13,520.108 575.13,518.441 576.5,517C 576.167,516.667 575.833,516.333 575.5,516C 576.667,515.5 577.5,514.667 578,513.5C 578.333,514.167 578.667,514.833 579,515.5C 579.423,514.044 580.256,513.544 581.5,514C 580.3,515.952 580.8,517.452 583,518.5C 583.374,517.584 583.874,516.75 584.5,516C 582.637,514.582 582.137,512.749 583,510.5C 583.333,511.833 583.667,513.167 584,514.5C 585.617,513.464 585.784,512.297 584.5,511C 586.248,510.92 587.915,510.087 589.5,508.5C 588.726,507.289 587.893,507.289 587,508.5C 586.333,505.833 585.667,505.833 585,508.5C 584.047,506.408 582.714,506.075 581,507.5C 580.915,505.915 580.749,504.582 580.5,503.5C 579.833,504.833 579.167,506.167 578.5,507.5C 578.846,505.366 577.846,503.533 575.5,502C 576.833,501.333 576.833,500.667 575.5,500C 576.833,500 578.167,500 579.5,500C 578.643,499.311 577.977,498.478 577.5,497.5C 578.641,496.575 578.641,495.741 577.5,495C 579.896,494.134 580.563,494.634 579.5,496.5C 580.522,497.354 581.355,498.354 582,499.5C 582.92,499.93 583.753,500.264 584.5,500.5C 582.922,501.298 581.256,501.798 579.5,502C 581.848,502.11 583.348,503.277 584,505.5C 585.252,503.999 586.252,502.332 587,500.5C 588.049,501.517 589.216,501.684 590.5,501C 588.109,500.309 588.109,499.309 590.5,498C 588.65,495.967 587.984,495.967 588.5,498C 586.565,499.895 584.898,499.562 583.5,497C 585.044,496.71 586.377,496.044 587.5,495C 586.027,494.29 585.36,493.124 585.5,491.5C 586.822,491.33 587.989,491.663 589,492.5C 589.761,488.749 590.928,488.583 592.5,492C 592.943,493.518 592.276,494.685 590.5,495.5C 591.718,495.109 592.552,495.776 593,497.5C 593.772,496.151 594.939,495.318 596.5,495C 595.633,492.684 596.299,490.684 598.5,489C 592.337,486.297 592.337,484.297 598.5,483C 597.269,481.817 597.269,480.651 598.5,479.5C 599.308,479.808 599.975,480.308 600.5,481C 599.549,481.718 599.383,482.551 600,483.5C 600.667,482.167 601.333,482.167 602,483.5C 603.487,482.747 603.654,481.914 602.5,481C 604.301,480.683 604.634,480.016 603.5,479C 604.5,478.667 605.5,478.333 606.5,478C 604.623,477.424 602.789,477.591 601,478.5C 599.174,477.99 599.007,477.156 600.5,476C 598.905,476.617 597.572,476.284 596.5,475C 597.536,473.383 598.703,473.216 600,474.5C 600.483,473.552 600.649,472.552 600.5,471.5C 598.516,471.383 596.85,472.05 595.5,473.5C 593.489,472.747 591.489,471.247 589.5,469C 591.158,468.275 591.658,467.108 591,465.5C 590,465.833 589,466.167 588,466.5C 587.508,465.451 587.674,464.451 588.5,463.5C 587.038,463.935 586.038,463.102 585.5,461C 585.667,460.5 585.833,460 586,459.5C 586.725,461.158 587.892,461.658 589.5,461C 588.483,459.951 588.316,458.784 589,457.5C 589.419,458.672 590.085,459.672 591,460.5C 592.422,457.97 592.755,455.303 592,452.5C 591.094,454.612 589.594,455.445 587.5,455C 589.784,453.637 589.951,452.137 588,450.5C 587.692,451.308 587.192,451.975 586.5,452.5C 582.277,449.726 582.611,447.726 587.5,446.5C 588.647,446.818 589.481,447.484 590,448.5C 590.766,443.969 592.766,442.969 596,445.5C 598.033,443.65 598.033,442.984 596,443.5C 594.488,442.743 593.154,441.743 592,440.5C 591.667,441.167 591.333,441.833 591,442.5C 590.682,440.939 589.849,439.772 588.5,439C 590.419,437.066 591.919,437.233 593,439.5C 593.667,438.833 594.333,438.167 595,437.5C 595.085,439.085 595.251,440.418 595.5,441.5C 596.354,440.052 597.354,438.719 598.5,437.5C 597.674,436.549 597.508,435.549 598,434.5C 599.512,433.743 600.846,432.743 602,431.5C 602.374,432.416 602.874,433.25 603.5,434C 602.044,434.423 601.544,435.256 602,436.5C 602.667,435.167 603.333,435.167 604,436.5C 604.805,434.099 605.638,434.266 606.5,437C 605.234,437.309 604.067,437.809 603,438.5C 602.667,438.167 602.333,437.833 602,437.5C 601.581,441.852 600.914,442.185 600,438.5C 597.266,439.362 597.099,440.195 599.5,441C 598.155,443.324 597.822,445.658 598.5,448C 599.833,448.667 601.167,448.667 602.5,448C 602.043,447.586 601.709,447.086 601.5,446.5C 602.274,445.289 603.107,445.289 604,446.5C 604.5,445.333 605.333,444.5 606.5,444C 604.915,443.915 603.582,443.749 602.5,443.5C 603.727,442.41 604.56,441.076 605,439.5C 605.333,440.5 605.667,441.5 606,442.5C 607.773,440.377 608.94,438.377 609.5,436.5C 608.5,435.833 607.5,435.167 606.5,434.5C 606.92,432.674 606.92,430.674 606.5,428.5C 608.331,429.052 609.997,429.052 611.5,428.5C 613.71,426.791 613.877,424.791 612,422.5C 611.346,423.696 610.846,423.696 610.5,422.5C 611.285,419.847 612.785,419.18 615,420.5C 615.617,419.551 615.451,418.718 614.5,418C 617.228,417.361 617.728,416.194 616,414.5C 615.667,415.167 615.333,415.833 615,416.5C 613.667,413.833 612.333,413.833 611,416.5C 608.419,415.61 607.086,413.943 607,411.5C 608.714,412.925 610.047,412.592 611,410.5C 611.718,411.451 612.551,411.617 613.5,411C 610.495,407.473 608.995,407.639 609,411.5C 608.147,409.875 607.147,409.542 606,410.5C 606.594,408.518 607.76,406.684 609.5,405C 608.929,403.795 608.262,402.628 607.5,401.5C 607.845,403.382 607.345,405.382 606,407.5C 603.84,405.837 601.673,404.17 599.5,402.5C 599.363,403.941 598.363,405.274 596.5,406.5C 597.326,407.451 597.492,408.451 597,409.5C 596.333,408.167 595.667,408.167 595,409.5C 594.626,408.584 594.126,407.75 593.5,407C 594.676,405.326 596.01,403.826 597.5,402.5C 596.645,401.707 595.811,402.04 595,403.5C 592.645,400.372 593.145,399.205 596.5,400C 594.453,398.927 592.453,397.761 590.5,396.5C 590.331,397.397 589.998,398.397 589.5,399.5C 588.614,398.675 588.281,397.675 588.5,396.5C 586.856,396.286 585.356,396.62 584,397.5C 582.282,393.584 581.115,393.917 580.5,398.5C 581.727,399.59 582.56,400.924 583,402.5C 583.333,401.833 583.667,401.167 584,400.5C 587.11,401.673 587.277,401.173 584.5,399C 586.387,398.837 587.887,399.671 589,401.5C 589.667,400.167 590.333,400.167 591,401.5C 592.247,399.119 592.58,399.453 592,402.5C 590.992,402.982 589.825,403.148 588.5,403C 589.654,403.914 589.487,404.747 588,405.5C 586.355,405.307 584.521,405.14 582.5,405C 581.874,404.25 581.374,403.416 581,402.5C 580.751,403.624 580.251,404.624 579.5,405.5C 579.167,405.333 578.833,405.167 578.5,405C 579.554,403.612 579.72,402.112 579,400.5C 577.513,401.253 577.346,402.086 578.5,403C 575.057,403.221 574.724,404.221 577.5,406C 580.322,406.564 582.822,407.064 585,407.5C 585.373,410.858 584.539,411.192 582.5,408.5C 582.471,409.834 581.637,411.167 580,412.5C 578.754,411.228 577.587,410.895 576.5,411.5C 577.76,412.382 578.926,413.382 580,414.5C 580.333,414.167 580.667,413.833 581,413.5C 582.615,415.011 582.615,416.344 581,417.5C 579.654,414.751 578.32,414.417 577,416.5C 576.717,413.258 575.883,412.924 574.5,415.5C 575.609,416.965 575.109,417.965 573,418.5C 572.5,417.333 571.667,416.5 570.5,416C 571.624,415.751 572.624,415.251 573.5,414.5C 572.726,413.289 571.893,413.289 571,414.5C 570.333,413.167 569.667,411.833 569,410.5C 568.517,411.448 568.351,412.448 568.5,413.5C 567.448,413.649 566.448,413.483 565.5,413C 566.956,412.577 567.456,411.744 567,410.5C 562.367,412.036 561.701,414.369 565,417.5C 565.483,416.552 565.649,415.552 565.5,414.5C 566.5,414.5 567.5,414.5 568.5,414.5C 568.781,416.963 569.781,419.13 571.5,421C 568.62,421.175 567.12,419.675 567,416.5C 566.667,418.167 566.333,419.833 566,421.5C 565.085,420.672 564.419,419.672 564,418.5C 563.135,420.888 563.968,422.388 566.5,423C 564.406,423.862 563.406,425.028 563.5,426.5C 559.309,424.1 558.975,421.6 562.5,419C 561.551,418.383 560.718,418.549 560,419.5C 559.676,417.431 558.842,417.098 557.5,418.5C 556.167,417.167 556.167,415.833 557.5,414.5C 557.833,415.167 558.167,415.833 558.5,416.5C 559.167,416.167 559.833,415.833 560.5,415.5C 560.94,414.302 561.273,413.135 561.5,412C 559.766,409.943 557.766,409.443 555.5,410.5C 554.306,407.381 552.806,407.048 551,409.5C 550.383,408.551 550.549,407.718 551.5,407C 549.203,405.84 549.536,404.84 552.5,404C 550.621,402.556 548.955,403.056 547.5,405.5C 547.167,405.167 546.833,404.833 546.5,404.5C 546.61,402.902 546.943,401.235 547.5,399.5C 545.473,398.307 543.973,396.64 543,394.5C 542.667,394.833 542.333,395.167 542,395.5C 541.5,394.333 540.667,393.5 539.5,393C 540.261,390.821 539.928,388.655 538.5,386.5C 537.549,387.326 536.549,387.492 535.5,387C 536.167,385.667 537.167,384.667 538.5,384C 537.228,382.754 536.895,381.587 537.5,380.5C 538.584,381.665 539.417,382.998 540,384.5C 540.293,380.02 541.126,379.687 542.5,383.5C 542.512,385.412 542.179,387.412 541.5,389.5C 541.808,390.308 542.308,390.975 543,391.5C 544.067,390.057 545.234,388.724 546.5,387.5C 544.024,384.147 544.524,383.814 548,386.5C 548.75,389.493 547.583,391.327 544.5,392C 545.333,392.833 546.167,393.667 547,394.5C 548.487,391.049 550.487,390.383 553,392.5C 552.695,390.557 552.695,388.557 553,386.5C 554.964,391.663 555.964,391.33 556,385.5C 554.062,384.14 552.396,384.473 551,386.5C 550.683,384.699 550.016,384.366 549,385.5C 546.904,384.285 547.071,383.451 549.5,383C 547.77,381.148 546.604,381.314 546,383.5C 544.563,381.779 545.063,380.279 547.5,379C 545.464,377.181 545.297,375.347 547,373.5C 547.423,374.956 548.256,375.456 549.5,375C 548.417,371.752 546.417,369.252 543.5,367.5C 542.468,369.04 541.135,369.54 539.5,369C 542.028,368.331 542.028,367.498 539.5,366.5C 538.833,366.833 538.167,367.167 537.5,367.5C 536.304,367.154 536.304,366.654 537.5,366C 535.899,365.727 534.399,365.227 533,364.5C 531.612,365.554 530.112,365.72 528.5,365C 529.711,363.887 529.711,362.72 528.5,361.5C 529.631,360.396 530.465,360.729 531,362.5C 531.667,361.167 532.333,359.833 533,358.5C 535.087,359.834 536.587,361.667 537.5,364C 538.964,365.377 539.964,365.377 540.5,364C 540.18,362.347 539.18,361.347 537.5,361C 538.374,359.273 538.207,357.44 537,355.5C 534.907,353.886 532.74,353.053 530.5,353C 532.807,352.646 533.141,351.646 531.5,350C 532.615,348.607 533.115,347.107 533,345.5C 530.765,347.202 528.265,348.202 525.5,348.5C 525.297,350.39 525.963,351.89 527.5,353C 526.422,353.674 525.755,354.674 525.5,356C 527.16,358.581 527.827,361.247 527.5,364C 526.667,364.833 525.833,365.667 525,366.5C 524.333,353.5 524.333,340.5 525,327.5C 524.984,331.764 525.817,335.764 527.5,339.5C 527.154,340.696 526.654,340.696 526,339.5C 525.503,341.81 525.337,344.143 525.5,346.5C 527.655,346.628 529.655,346.128 531.5,345C 530.903,343.372 531.237,341.705 532.5,340C 531.833,338.667 530.833,337.667 529.5,337C 531.822,337.131 533.988,337.965 536,339.5C 536.317,337.699 536.984,337.366 538,338.5C 539.901,337.017 539.567,336.017 537,335.5C 534.762,336.899 534.095,336.232 535,333.5C 535.414,333.957 535.914,334.291 536.5,334.5C 537.472,332.364 539.139,331.197 541.5,331C 539.088,328.965 539.755,327.965 543.5,328C 541.249,328.213 539.249,327.213 537.5,325C 538.448,324.517 539.448,324.351 540.5,324.5C 540.33,323.178 540.663,322.011 541.5,321C 540.833,320.667 540.167,320.333 539.5,320C 541.473,317.511 543.306,317.344 545,319.5C 546.751,317.51 547.751,315.177 548,312.5C 548.615,314.116 549.615,315.449 551,316.5C 551.617,315.551 551.451,314.718 550.5,314C 551.931,313.535 553.097,312.701 554,311.5C 554.414,311.957 554.914,312.291 555.5,312.5C 555.498,314.741 555.832,317.074 556.5,319.5C 557.5,318.167 558.5,318.167 559.5,319.5C 560.711,318.726 560.711,317.893 559.5,317C 560.167,316.667 560.833,316.333 561.5,316C 560.207,315.51 558.873,315.343 557.5,315.5C 557.457,311.107 557.957,310.774 559,314.5C 560.609,313.85 562.109,314.35 563.5,316C 561.043,317.512 561.043,318.846 563.5,320C 562.953,320.925 562.287,321.758 561.5,322.5C 560.575,321.359 559.741,321.359 559,322.5C 558.667,321.833 558.333,321.167 558,320.5C 556.276,323.73 554.276,324.064 552,321.5C 551.5,322.667 550.667,323.5 549.5,324C 551.513,324.875 551.513,326.209 549.5,328C 552.167,328.667 552.167,329.333 549.5,330C 551.516,331.129 553.182,331.962 554.5,332.5C 552.994,333.747 551.494,333.747 550,332.5C 549.526,337.627 548.526,337.627 547,332.5C 545.594,333.668 544.428,333.335 543.5,331.5C 542.494,331.938 542.494,332.604 543.5,333.5C 544.376,334.251 545.376,334.751 546.5,335C 545.747,336.487 544.914,336.654 544,335.5C 542.513,336.253 542.346,337.086 543.5,338C 538.279,338.542 538.279,339.376 543.5,340.5C 542.833,340.833 542.167,341.167 541.5,341.5C 543.475,342.749 543.809,344.249 542.5,346C 543.449,346.617 544.282,346.451 545,345.5C 545.333,344.167 545.667,342.833 546,341.5C 546.674,343.517 547.841,345.183 549.5,346.5C 548.975,347.192 548.308,347.692 547.5,348C 550.832,348.671 551.999,347.504 551,344.5C 552.827,345.184 554.327,344.517 555.5,342.5C 555.167,341.5 554.5,340.833 553.5,340.5C 553.002,341.603 552.669,342.603 552.5,343.5C 551.614,342.675 551.281,341.675 551.5,340.5C 547.722,339.807 547.722,338.64 551.5,337C 550.167,335.16 550.334,334.66 552,335.5C 554.398,335.042 556.064,333.708 557,331.5C 558.708,333.543 560.708,335.21 563,336.5C 565.314,334.631 565.647,332.631 564,330.5C 563.71,332.044 563.044,333.377 562,334.5C 561.978,332.079 560.978,329.746 559,327.5C 558,328.5 557,329.5 556,330.5C 555.749,328.567 555.249,326.734 554.5,325C 555.744,324.544 556.577,325.044 557,326.5C 558.434,324.864 560.267,323.864 562.5,323.5C 563.803,324.718 564.803,324.385 565.5,322.5C 570.093,325.528 571.26,324.528 569,319.5C 567.745,318.789 566.579,317.956 565.5,317C 567.061,316.682 568.228,315.849 569,314.5C 569.72,316.255 570.887,317.089 572.5,317C 571.542,315.853 571.875,314.853 573.5,314C 572.285,311.904 571.451,312.071 571,314.5C 570.5,313.5 570,312.5 569.5,311.5C 570.891,311.891 571.891,311.058 572.5,309C 572.167,308.667 571.833,308.333 571.5,308C 572.996,307.493 574.163,307.993 575,309.5C 577.096,308.285 576.929,307.451 574.5,307C 575.28,305.927 575.113,304.76 574,303.5C 573.333,304.833 572.667,304.833 572,303.5C 571.544,304.744 572.044,305.577 573.5,306C 569.119,305.4 565.119,306.566 561.5,309.5C 560.833,309.333 560.167,309.167 559.5,309C 563.361,308.431 563.361,307.598 559.5,306.5C 560.5,305.667 561.5,304.833 562.5,304C 559.754,302.25 556.754,301.25 553.5,301C 556.167,299.667 556.167,298.333 553.5,297C 555.936,297.053 558.269,296.887 560.5,296.5C 560.192,295.692 559.692,295.025 559,294.5C 555.975,295.791 555.641,295.124 558,292.5C 558.893,293.711 559.726,293.711 560.5,292.5C 559.092,291.757 557.759,290.923 556.5,290C 558.095,290.617 559.428,290.284 560.5,289C 557.723,286.827 557.89,286.327 561,287.5C 563.668,286.02 563.835,284.52 561.5,283C 562.549,282.508 563.549,282.674 564.5,283.5C 565.5,282.5 566.5,281.5 567.5,280.5C 566.494,279.604 566.494,278.938 567.5,278.5C 568.192,279.025 568.692,279.692 569,280.5C 569.689,279.643 570.522,278.977 571.5,278.5C 572.624,280.369 573.457,282.369 574,284.5C 575.337,283.235 576.837,282.735 578.5,283C 580.032,285.034 581.365,287.201 582.5,289.5C 581.833,289.833 581.167,290.167 580.5,290.5C 581.214,292.811 582.214,294.978 583.5,297C 581.845,299.653 579.845,301.986 577.5,304C 579.891,305.309 579.891,306.309 577.5,307C 579.099,308.504 580.932,308.67 583,307.5C 584.326,307.755 585.326,308.422 586,309.5C 587.067,308.809 588.234,308.309 589.5,308C 587.913,307.138 586.246,306.471 584.5,306C 586.901,305.195 586.734,304.362 584,303.5C 580.141,304.037 579.808,303.037 583,300.5C 583.333,301.167 583.667,301.833 584,302.5C 585.452,299.321 587.619,299.155 590.5,302C 589.167,302.667 588.167,303.667 587.5,305C 589.731,305.622 591.565,306.789 593,308.5C 594.84,307.167 595.34,307.334 594.5,309C 595.5,309.5 596.5,310 597.5,310.5C 600.849,309.17 601.182,309.67 598.5,312C 600.387,312.163 601.887,311.329 603,309.5C 605.667,312.167 608.333,314.833 611,317.5C 613.67,309.774 614.67,309.774 614,317.5C 614.925,316.953 615.758,316.287 616.5,315.5C 615.572,314.232 615.405,312.899 616,311.5C 617.779,312.479 619.445,312.146 621,310.5C 623.107,312.487 625.607,313.82 628.5,314.5 Z"/></g>
<g><path style="opacity:1" fill="#ccb38e" d="M 474.5,496.5 C 504.5,496.5 534.5,496.5 564.5,496.5C 564.5,563.167 564.5,629.833 564.5,696.5C 550.833,696.5 537.167,696.5 523.5,696.5C 523.833,646.428 523.5,597.095 522.5,548.5C 506.833,548.5 491.167,548.5 475.5,548.5C 475.167,548.5 474.833,548.5 474.5,548.5C 474.5,531.167 474.5,513.833 474.5,496.5 Z"/></g>
<g><path style="opacity:1" fill="#948063" d="M 526.5,248.5 C 558.167,268.5 589.833,288.5 621.5,308.5C 623.833,310.5 626.167,312.5 628.5,314.5C 625.607,313.82 623.107,312.487 621,310.5C 619.445,312.146 617.779,312.479 616,311.5C 615.405,312.899 615.572,314.232 616.5,315.5C 615.758,316.287 614.925,316.953 614,317.5C 614.67,309.774 613.67,309.774 611,317.5C 608.333,314.833 605.667,312.167 603,309.5C 601.887,311.329 600.387,312.163 598.5,312C 601.182,309.67 600.849,309.17 597.5,310.5C 596.5,310 595.5,309.5 594.5,309C 595.34,307.334 594.84,307.167 593,308.5C 591.565,306.789 589.731,305.622 587.5,305C 588.167,303.667 589.167,302.667 590.5,302C 587.619,299.155 585.452,299.321 584,302.5C 583.667,301.833 583.333,301.167 583,300.5C 579.808,303.037 580.141,304.037 584,303.5C 586.734,304.362 586.901,305.195 584.5,306C 586.246,306.471 587.913,307.138 589.5,308C 588.234,308.309 587.067,308.809 586,309.5C 585.326,308.422 584.326,307.755 583,307.5C 580.932,308.67 579.099,308.504 577.5,307C 579.891,306.309 579.891,305.309 577.5,304C 579.845,301.986 581.845,299.653 583.5,297C 582.214,294.978 581.214,292.811 580.5,290.5C 581.167,290.167 581.833,289.833 582.5,289.5C 581.365,287.201 580.032,285.034 578.5,283C 576.837,282.735 575.337,283.235 574,284.5C 573.457,282.369 572.624,280.369 571.5,278.5C 570.522,278.977 569.689,279.643 569,280.5C 568.692,279.692 568.192,279.025 567.5,278.5C 566.494,278.938 566.494,279.604 567.5,280.5C 566.5,281.5 565.5,282.5 564.5,283.5C 563.549,282.674 562.549,282.508 561.5,283C 563.835,284.52 563.668,286.02 561,287.5C 557.89,286.327 557.723,286.827 560.5,289C 559.428,290.284 558.095,290.617 556.5,290C 557.759,290.923 559.092,291.757 560.5,292.5C 559.726,293.711 558.893,293.711 558,292.5C 555.641,295.124 555.975,295.791 559,294.5C 559.692,295.025 560.192,295.692 560.5,296.5C 558.269,296.887 555.936,297.053 553.5,297C 556.167,298.333 556.167,299.667 553.5,301C 556.754,301.25 559.754,302.25 562.5,304C 561.5,304.833 560.5,305.667 559.5,306.5C 563.361,307.598 563.361,308.431 559.5,309C 560.167,309.167 560.833,309.333 561.5,309.5C 565.119,306.566 569.119,305.4 573.5,306C 572.044,305.577 571.544,304.744 572,303.5C 572.667,304.833 573.333,304.833 574,303.5C 575.113,304.76 575.28,305.927 574.5,307C 576.929,307.451 577.096,308.285 575,309.5C 574.163,307.993 572.996,307.493 571.5,308C 571.833,308.333 572.167,308.667 572.5,309C 571.891,311.058 570.891,311.891 569.5,311.5C 570,312.5 570.5,313.5 571,314.5C 571.451,312.071 572.285,311.904 573.5,314C 571.875,314.853 571.542,315.853 572.5,317C 570.887,317.089 569.72,316.255 569,314.5C 568.228,315.849 567.061,316.682 565.5,317C 566.579,317.956 567.745,318.789 569,319.5C 571.26,324.528 570.093,325.528 565.5,322.5C 564.803,324.385 563.803,324.718 562.5,323.5C 560.267,323.864 558.434,324.864 557,326.5C 556.577,325.044 555.744,324.544 554.5,325C 555.249,326.734 555.749,328.567 556,330.5C 557,329.5 558,328.5 559,327.5C 560.978,329.746 561.978,332.079 562,334.5C 563.044,333.377 563.71,332.044 564,330.5C 565.647,332.631 565.314,334.631 563,336.5C 560.708,335.21 558.708,333.543 557,331.5C 556.064,333.708 554.398,335.042 552,335.5C 550.334,334.66 550.167,335.16 551.5,337C 547.722,338.64 547.722,339.807 551.5,340.5C 551.281,341.675 551.614,342.675 552.5,343.5C 552.669,342.603 553.002,341.603 553.5,340.5C 554.5,340.833 555.167,341.5 555.5,342.5C 554.327,344.517 552.827,345.184 551,344.5C 551.999,347.504 550.832,348.671 547.5,348C 548.308,347.692 548.975,347.192 549.5,346.5C 547.841,345.183 546.674,343.517 546,341.5C 545.667,342.833 545.333,344.167 545,345.5C 544.282,346.451 543.449,346.617 542.5,346C 543.809,344.249 543.475,342.749 541.5,341.5C 542.167,341.167 542.833,340.833 543.5,340.5C 538.279,339.376 538.279,338.542 543.5,338C 542.346,337.086 542.513,336.253 544,335.5C 544.914,336.654 545.747,336.487 546.5,335C 545.376,334.751 544.376,334.251 543.5,333.5C 542.494,332.604 542.494,331.938 543.5,331.5C 544.428,333.335 545.594,333.668 547,332.5C 548.526,337.627 549.526,337.627 550,332.5C 551.494,333.747 552.994,333.747 554.5,332.5C 553.182,331.962 551.516,331.129 549.5,330C 552.167,329.333 552.167,328.667 549.5,328C 551.513,326.209 551.513,324.875 549.5,324C 550.667,323.5 551.5,322.667 552,321.5C 554.276,324.064 556.276,323.73 558,320.5C 558.333,321.167 558.667,321.833 559,322.5C 559.741,321.359 560.575,321.359 561.5,322.5C 562.287,321.758 562.953,320.925 563.5,320C 561.043,318.846 561.043,317.512 563.5,316C 562.109,314.35 560.609,313.85 559,314.5C 557.957,310.774 557.457,311.107 557.5,315.5C 558.873,315.343 560.207,315.51 561.5,316C 560.833,316.333 560.167,316.667 559.5,317C 560.711,317.893 560.711,318.726 559.5,319.5C 558.5,318.167 557.5,318.167 556.5,319.5C 555.832,317.074 555.498,314.741 555.5,312.5C 554.914,312.291 554.414,311.957 554,311.5C 553.097,312.701 551.931,313.535 550.5,314C 551.451,314.718 551.617,315.551 551,316.5C 549.615,315.449 548.615,314.116 548,312.5C 547.751,315.177 546.751,317.51 545,319.5C 543.306,317.344 541.473,317.511 539.5,320C 540.167,320.333 540.833,320.667 541.5,321C 540.663,322.011 540.33,323.178 540.5,324.5C 539.448,324.351 538.448,324.517 537.5,325C 539.249,327.213 541.249,328.213 543.5,328C 539.755,327.965 539.088,328.965 541.5,331C 539.139,331.197 537.472,332.364 536.5,334.5C 535.914,334.291 535.414,333.957 535,333.5C 534.095,336.232 534.762,336.899 537,335.5C 539.567,336.017 539.901,337.017 538,338.5C 536.984,337.366 536.317,337.699 536,339.5C 533.988,337.965 531.822,337.131 529.5,337C 530.833,337.667 531.833,338.667 532.5,340C 531.237,341.705 530.903,343.372 531.5,345C 529.655,346.128 527.655,346.628 525.5,346.5C 525.337,344.143 525.503,341.81 526,339.5C 526.654,340.696 527.154,340.696 527.5,339.5C 525.817,335.764 524.984,331.764 525,327.5C 524.333,340.5 524.333,353.5 525,366.5C 525.833,365.667 526.667,364.833 527.5,364C 527.827,361.247 527.16,358.581 525.5,356C 525.755,354.674 526.422,353.674 527.5,353C 525.963,351.89 525.297,350.39 525.5,348.5C 528.265,348.202 530.765,347.202 533,345.5C 533.115,347.107 532.615,348.607 531.5,350C 533.141,351.646 532.807,352.646 530.5,353C 532.74,353.053 534.907,353.886 537,355.5C 538.207,357.44 538.374,359.273 537.5,361C 539.18,361.347 540.18,362.347 540.5,364C 539.964,365.377 538.964,365.377 537.5,364C 536.587,361.667 535.087,359.834 533,358.5C 532.333,359.833 531.667,361.167 531,362.5C 530.465,360.729 529.631,360.396 528.5,361.5C 529.711,362.72 529.711,363.887 528.5,365C 530.112,365.72 531.612,365.554 533,364.5C 534.399,365.227 535.899,365.727 537.5,366C 536.304,366.654 536.304,367.154 537.5,367.5C 538.167,367.167 538.833,366.833 539.5,366.5C 542.028,367.498 542.028,368.331 539.5,369C 541.135,369.54 542.468,369.04 543.5,367.5C 546.417,369.252 548.417,371.752 549.5,375C 548.256,375.456 547.423,374.956 547,373.5C 545.297,375.347 545.464,377.181 547.5,379C 545.063,380.279 544.563,381.779 546,383.5C 546.604,381.314 547.77,381.148 549.5,383C 547.071,383.451 546.904,384.285 549,385.5C 550.016,384.366 550.683,384.699 551,386.5C 552.396,384.473 554.062,384.14 556,385.5C 555.964,391.33 554.964,391.663 553,386.5C 552.695,388.557 552.695,390.557 553,392.5C 550.487,390.383 548.487,391.049 547,394.5C 546.167,393.667 545.333,392.833 544.5,392C 547.583,391.327 548.75,389.493 548,386.5C 544.524,383.814 544.024,384.147 546.5,387.5C 545.234,388.724 544.067,390.057 543,391.5C 542.308,390.975 541.808,390.308 541.5,389.5C 542.179,387.412 542.512,385.412 542.5,383.5C 541.126,379.687 540.293,380.02 540,384.5C 539.417,382.998 538.584,381.665 537.5,380.5C 536.895,381.587 537.228,382.754 538.5,384C 537.167,384.667 536.167,385.667 535.5,387C 536.549,387.492 537.549,387.326 538.5,386.5C 539.928,388.655 540.261,390.821 539.5,393C 540.667,393.5 541.5,394.333 542,395.5C 542.333,395.167 542.667,394.833 543,394.5C 543.973,396.64 545.473,398.307 547.5,399.5C 546.943,401.235 546.61,402.902 546.5,404.5C 546.833,404.833 547.167,405.167 547.5,405.5C 548.955,403.056 550.621,402.556 552.5,404C 549.536,404.84 549.203,405.84 551.5,407C 550.549,407.718 550.383,408.551 551,409.5C 552.806,407.048 554.306,407.381 555.5,410.5C 557.766,409.443 559.766,409.943 561.5,412C 561.273,413.135 560.94,414.302 560.5,415.5C 559.833,415.833 559.167,416.167 558.5,416.5C 558.167,415.833 557.833,415.167 557.5,414.5C 556.167,415.833 556.167,417.167 557.5,418.5C 558.842,417.098 559.676,417.431 560,419.5C 560.718,418.549 561.551,418.383 562.5,419C 558.975,421.6 559.309,424.1 563.5,426.5C 563.406,425.028 564.406,423.862 566.5,423C 563.968,422.388 563.135,420.888 564,418.5C 564.419,419.672 565.085,420.672 566,421.5C 566.333,419.833 566.667,418.167 567,416.5C 567.12,419.675 568.62,421.175 571.5,421C 569.781,419.13 568.781,416.963 568.5,414.5C 567.5,414.5 566.5,414.5 565.5,414.5C 565.649,415.552 565.483,416.552 565,417.5C 561.701,414.369 562.367,412.036 567,410.5C 567.456,411.744 566.956,412.577 565.5,413C 566.448,413.483 567.448,413.649 568.5,413.5C 568.351,412.448 568.517,411.448 569,410.5C 569.667,411.833 570.333,413.167 571,414.5C 571.893,413.289 572.726,413.289 573.5,414.5C 572.624,415.251 571.624,415.751 570.5,416C 571.667,416.5 572.5,417.333 573,418.5C 575.109,417.965 575.609,416.965 574.5,415.5C 575.883,412.924 576.717,413.258 577,416.5C 578.32,414.417 579.654,414.751 581,417.5C 582.615,416.344 582.615,415.011 581,413.5C 580.667,413.833 580.333,414.167 580,414.5C 578.926,413.382 577.76,412.382 576.5,411.5C 577.587,410.895 578.754,411.228 580,412.5C 581.637,411.167 582.471,409.834 582.5,408.5C 584.539,411.192 585.373,410.858 585,407.5C 582.822,407.064 580.322,406.564 577.5,406C 574.724,404.221 575.057,403.221 578.5,403C 577.346,402.086 577.513,401.253 579,400.5C 579.72,402.112 579.554,403.612 578.5,405C 578.833,405.167 579.167,405.333 579.5,405.5C 580.251,404.624 580.751,403.624 581,402.5C 581.374,403.416 581.874,404.25 582.5,405C 584.521,405.14 586.355,405.307 588,405.5C 589.487,404.747 589.654,403.914 588.5,403C 589.825,403.148 590.992,402.982 592,402.5C 592.58,399.453 592.247,399.119 591,401.5C 590.333,400.167 589.667,400.167 589,401.5C 587.887,399.671 586.387,398.837 584.5,399C 587.277,401.173 587.11,401.673 584,400.5C 583.667,401.167 583.333,401.833 583,402.5C 582.56,400.924 581.727,399.59 580.5,398.5C 581.115,393.917 582.282,393.584 584,397.5C 585.356,396.62 586.856,396.286 588.5,396.5C 588.281,397.675 588.614,398.675 589.5,399.5C 589.998,398.397 590.331,397.397 590.5,396.5C 592.453,397.761 594.453,398.927 596.5,400C 593.145,399.205 592.645,400.372 595,403.5C 595.811,402.04 596.645,401.707 597.5,402.5C 596.01,403.826 594.676,405.326 593.5,407C 594.126,407.75 594.626,408.584 595,409.5C 595.667,408.167 596.333,408.167 597,409.5C 597.492,408.451 597.326,407.451 596.5,406.5C 598.363,405.274 599.363,403.941 599.5,402.5C 601.673,404.17 603.84,405.837 606,407.5C 607.345,405.382 607.845,403.382 607.5,401.5C 608.262,402.628 608.929,403.795 609.5,405C 607.76,406.684 606.594,408.518 606,410.5C 607.147,409.542 608.147,409.875 609,411.5C 608.995,407.639 610.495,407.473 613.5,411C 612.551,411.617 611.718,411.451 611,410.5C 610.047,412.592 608.714,412.925 607,411.5C 607.086,413.943 608.419,415.61 611,416.5C 612.333,413.833 613.667,413.833 615,416.5C 615.333,415.833 615.667,415.167 616,414.5C 617.728,416.194 617.228,417.361 614.5,418C 615.451,418.718 615.617,419.551 615,420.5C 612.785,419.18 611.285,419.847 610.5,422.5C 610.846,423.696 611.346,423.696 612,422.5C 613.877,424.791 613.71,426.791 611.5,428.5C 609.997,429.052 608.331,429.052 606.5,428.5C 606.92,430.674 606.92,432.674 606.5,434.5C 607.5,435.167 608.5,435.833 609.5,436.5C 608.94,438.377 607.773,440.377 606,442.5C 605.667,441.5 605.333,440.5 605,439.5C 604.56,441.076 603.727,442.41 602.5,443.5C 603.582,443.749 604.915,443.915 606.5,444C 605.333,444.5 604.5,445.333 604,446.5C 603.107,445.289 602.274,445.289 601.5,446.5C 601.709,447.086 602.043,447.586 602.5,448C 601.167,448.667 599.833,448.667 598.5,448C 597.822,445.658 598.155,443.324 599.5,441C 597.099,440.195 597.266,439.362 600,438.5C 600.914,442.185 601.581,441.852 602,437.5C 602.333,437.833 602.667,438.167 603,438.5C 604.067,437.809 605.234,437.309 606.5,437C 605.638,434.266 604.805,434.099 604,436.5C 603.333,435.167 602.667,435.167 602,436.5C 601.544,435.256 602.044,434.423 603.5,434C 602.874,433.25 602.374,432.416 602,431.5C 600.846,432.743 599.512,433.743 598,434.5C 597.508,435.549 597.674,436.549 598.5,437.5C 597.354,438.719 596.354,440.052 595.5,441.5C 595.251,440.418 595.085,439.085 595,437.5C 594.333,438.167 593.667,438.833 593,439.5C 591.919,437.233 590.419,437.066 588.5,439C 589.849,439.772 590.682,440.939 591,442.5C 591.333,441.833 591.667,441.167 592,440.5C 593.154,441.743 594.488,442.743 596,443.5C 598.033,442.984 598.033,443.65 596,445.5C 592.766,442.969 590.766,443.969 590,448.5C 589.481,447.484 588.647,446.818 587.5,446.5C 582.611,447.726 582.277,449.726 586.5,452.5C 587.192,451.975 587.692,451.308 588,450.5C 589.951,452.137 589.784,453.637 587.5,455C 589.594,455.445 591.094,454.612 592,452.5C 592.755,455.303 592.422,457.97 591,460.5C 590.085,459.672 589.419,458.672 589,457.5C 588.316,458.784 588.483,459.951 589.5,461C 587.892,461.658 586.725,461.158 586,459.5C 585.833,460 585.667,460.5 585.5,461C 586.038,463.102 587.038,463.935 588.5,463.5C 587.674,464.451 587.508,465.451 588,466.5C 589,466.167 590,465.833 591,465.5C 591.658,467.108 591.158,468.275 589.5,469C 591.489,471.247 593.489,472.747 595.5,473.5C 596.85,472.05 598.516,471.383 600.5,471.5C 600.649,472.552 600.483,473.552 600,474.5C 598.703,473.216 597.536,473.383 596.5,475C 597.572,476.284 598.905,476.617 600.5,476C 599.007,477.156 599.174,477.99 601,478.5C 602.789,477.591 604.623,477.424 606.5,478C 605.5,478.333 604.5,478.667 603.5,479C 604.634,480.016 604.301,480.683 602.5,481C 603.654,481.914 603.487,482.747 602,483.5C 601.333,482.167 600.667,482.167 600,483.5C 599.383,482.551 599.549,481.718 600.5,481C 599.975,480.308 599.308,479.808 598.5,479.5C 597.269,480.651 597.269,481.817 598.5,483C 592.337,484.297 592.337,486.297 598.5,489C 596.299,490.684 595.633,492.684 596.5,495C 594.939,495.318 593.772,496.151 593,497.5C 592.552,495.776 591.718,495.109 590.5,495.5C 592.276,494.685 592.943,493.518 592.5,492C 590.928,488.583 589.761,488.749 589,492.5C 587.989,491.663 586.822,491.33 585.5,491.5C 585.36,493.124 586.027,494.29 587.5,495C 586.377,496.044 585.044,496.71 583.5,497C 584.898,499.562 586.565,499.895 588.5,498C 587.984,495.967 588.65,495.967 590.5,498C 588.109,499.309 588.109,500.309 590.5,501C 589.216,501.684 588.049,501.517 587,500.5C 586.252,502.332 585.252,503.999 584,505.5C 583.348,503.277 581.848,502.11 579.5,502C 581.256,501.798 582.922,501.298 584.5,500.5C 583.753,500.264 582.92,499.93 582,499.5C 581.355,498.354 580.522,497.354 579.5,496.5C 580.563,494.634 579.896,494.134 577.5,495C 578.641,495.741 578.641,496.575 577.5,497.5C 577.977,498.478 578.643,499.311 579.5,500C 578.167,500 576.833,500 575.5,500C 576.833,500.667 576.833,501.333 575.5,502C 577.846,503.533 578.846,505.366 578.5,507.5C 579.167,506.167 579.833,504.833 580.5,503.5C 580.749,504.582 580.915,505.915 581,507.5C 582.714,506.075 584.047,506.408 585,508.5C 585.667,505.833 586.333,505.833 587,508.5C 587.893,507.289 588.726,507.289 589.5,508.5C 587.915,510.087 586.248,510.92 584.5,511C 585.784,512.297 585.617,513.464 584,514.5C 583.667,513.167 583.333,511.833 583,510.5C 582.137,512.749 582.637,514.582 584.5,516C 583.874,516.75 583.374,517.584 583,518.5C 580.8,517.452 580.3,515.952 581.5,514C 580.256,513.544 579.423,514.044 579,515.5C 578.667,514.833 578.333,514.167 578,513.5C 577.5,514.667 576.667,515.5 575.5,516C 575.833,516.333 576.167,516.667 576.5,517C 575.13,518.441 574.13,520.108 573.5,522C 574.275,523.23 575.275,523.563 576.5,523C 575.549,522.282 575.383,521.449 576,520.5C 578,523.167 580,525.833 582,528.5C 582.893,527.289 583.726,527.289 584.5,528.5C 583.975,529.192 583.308,529.692 582.5,530C 583.337,531.011 583.67,532.178 583.5,533.5C 585.467,533.739 587.301,533.406 589,532.5C 589.667,533.5 589.667,534.5 589,535.5C 587.32,534.397 585.82,534.73 584.5,536.5C 583.028,534.242 581.528,531.908 580,529.5C 579.333,530.833 578.667,530.833 578,529.5C 578.25,525.055 576.417,524.388 572.5,527.5C 573.569,527.64 574.736,527.64 576,527.5C 576.563,528.725 576.23,529.725 575,530.5C 573.378,530.68 571.212,530.68 568.5,530.5C 569.685,531.853 571.019,533.02 572.5,534C 571.027,534.71 570.36,535.876 570.5,537.5C 574.251,537.918 576.418,536.251 577,532.5C 577.494,534.134 577.66,535.801 577.5,537.5C 580.062,538.18 582.729,538.347 585.5,538C 585.167,538.333 584.833,538.667 584.5,539C 585.308,539.308 585.975,539.808 586.5,540.5C 585.282,541.803 585.615,542.803 587.5,543.5C 586.24,544.382 585.074,545.382 584,546.5C 583.576,544.385 582.409,543.552 580.5,544C 581.815,545.395 581.481,546.395 579.5,547C 580.701,547.903 581.535,549.069 582,550.5C 583.333,549.833 584.333,548.833 585,547.5C 586.04,551.292 587.873,551.958 590.5,549.5C 589.397,549.002 588.397,548.669 587.5,548.5C 589.998,547.062 592.164,547.396 594,549.5C 595.922,546.911 598.089,546.411 600.5,548C 597.715,548.575 595.048,550.075 592.5,552.5C 593.154,554.115 593.654,555.782 594,557.5C 594.359,554.456 595.026,554.122 596,556.5C 597.049,555.483 598.216,555.316 599.5,556C 598.167,557.333 596.833,558.667 595.5,560C 596.738,559.923 597.738,560.089 598.5,560.5C 598.023,561.931 597.357,563.264 596.5,564.5C 595.914,564.291 595.414,563.957 595,563.5C 594.632,564.91 593.799,565.91 592.5,566.5C 589.94,565.565 589.274,566.399 590.5,569C 589.517,569.591 588.85,569.257 588.5,568C 587.854,564.635 586.687,561.468 585,558.5C 583.685,560.316 582.185,561.983 580.5,563.5C 580.846,564.696 581.346,564.696 582,563.5C 582.667,564.5 582.667,565.5 582,566.5C 580,565.833 578.667,564.5 578,562.5C 577.226,564.403 577.56,566.07 579,567.5C 579.914,566.346 580.747,566.513 581.5,568C 581.614,570.744 581.448,573.577 581,576.5C 581.333,575.833 581.667,575.167 582,574.5C 583.243,576.833 584.909,577.5 587,576.5C 587.456,577.744 586.956,578.577 585.5,579C 588.58,580.603 590.913,582.27 592.5,584C 592.07,584.92 591.736,585.753 591.5,586.5C 590.833,585.833 590.167,585.167 589.5,584.5C 589.167,585 588.833,585.5 588.5,586C 589.63,587.76 590.63,589.593 591.5,591.5C 592.803,590.282 593.803,590.615 594.5,592.5C 594.833,591.833 595.167,591.167 595.5,590.5C 597.036,591.936 598.703,592.769 600.5,593C 599.167,593.333 597.833,593.667 596.5,594C 597.167,594.333 597.833,594.667 598.5,595C 597.5,596 596.5,597 595.5,598C 595.833,598.333 596.167,598.667 596.5,599C 595.376,599.249 594.376,599.749 593.5,600.5C 594.498,603.028 595.331,603.028 596,600.5C 596.92,600.93 597.753,601.264 598.5,601.5C 597.167,602.833 595.833,604.167 594.5,605.5C 596.575,607.83 599.242,608.997 602.5,609C 601.833,609.333 601.167,609.667 600.5,610C 601.833,611.333 601.833,612.667 600.5,614C 601.624,614.249 602.624,614.749 603.5,615.5C 601.713,616.316 600.046,617.316 598.5,618.5C 597.319,620.198 597.319,621.865 598.5,623.5C 600.157,619.639 601.657,619.639 603,623.5C 603.684,622.216 603.517,621.049 602.5,620C 604.101,619.727 605.601,619.227 607,618.5C 607.167,618.833 607.333,619.167 607.5,619.5C 606.5,620.167 605.5,620.833 604.5,621.5C 604.709,622.086 605.043,622.586 605.5,623C 603.795,626.25 602.295,626.084 601,622.5C 600.667,623.5 600.333,624.5 600,625.5C 599.346,624.304 598.846,624.304 598.5,625.5C 599.522,626.354 600.355,627.354 601,628.5C 601.833,626 603,625.833 604.5,628C 603.692,628.308 603.025,628.808 602.5,629.5C 604.132,629.238 605.299,630.238 606,632.5C 606.014,630.402 605.847,628.569 605.5,627C 607.301,626.683 607.634,626.016 606.5,625C 607.701,624.097 608.535,622.931 609,621.5C 611.499,622.798 613.833,622.464 616,620.5C 616.309,621.766 616.809,622.933 617.5,624C 616.833,624.333 616.167,624.667 615.5,625C 616.672,625.419 617.672,626.085 618.5,627C 617.185,628.395 617.519,629.395 619.5,630C 616.59,631.719 615.59,630.886 616.5,627.5C 615.313,626.481 614.313,625.314 613.5,624C 612.833,623.333 612.167,623.333 611.5,624C 612.711,625.113 612.711,626.28 611.5,627.5C 612.167,627.833 612.833,628.167 613.5,628.5C 610.894,629.77 608.561,631.437 606.5,633.5C 605.289,634.274 605.289,635.107 606.5,636C 605.833,636.333 605.167,636.667 604.5,637C 607.344,637.907 608.844,639.741 609,642.5C 607.869,641.396 607.035,641.729 606.5,643.5C 607.529,643.296 608.529,643.796 609.5,645C 608.354,645.645 607.354,646.478 606.5,647.5C 604.249,646.305 601.915,645.305 599.5,644.5C 598.41,645.391 598.41,646.391 599.5,647.5C 598.624,648.251 597.624,648.751 596.5,649C 598.521,649.14 600.355,649.307 602,649.5C 603.684,647.541 605.684,647.541 608,649.5C 608.333,648.833 608.667,648.167 609,647.5C 609.684,648.784 609.517,649.951 608.5,651C 609.833,651 611.167,651 612.5,651C 611.167,651.667 611.167,652.333 612.5,653C 611.672,653.915 610.672,654.581 609.5,655C 610.416,655.374 611.25,655.874 612,656.5C 612.862,654.913 613.529,653.246 614,651.5C 614.7,653.032 615.866,654.032 617.5,654.5C 619.368,654.054 621.201,653.721 623,653.5C 623.749,654.635 623.583,655.635 622.5,656.5C 621.094,655.332 619.928,655.665 619,657.5C 618.577,656.044 617.744,655.544 616.5,656C 616.295,657.676 617.128,659.176 619,660.5C 619.725,658.842 620.892,658.342 622.5,659C 620.431,659.324 620.098,660.158 621.5,661.5C 619.876,662.869 619.376,664.536 620,666.5C 621.764,668.661 623.597,668.828 625.5,667C 622.895,666.974 621.729,665.807 622,663.5C 622.689,664.357 623.522,665.023 624.5,665.5C 626.017,664.089 627.351,664.256 628.5,666C 626.729,666.535 626.396,667.369 627.5,668.5C 628.971,667.619 629.804,666.286 630,664.5C 630.21,667.234 631.044,669.734 632.5,672C 631.167,672.333 629.833,672.667 628.5,673C 630.256,673.202 631.922,673.702 633.5,674.5C 630.526,676.509 627.193,678.676 623.5,681C 625.297,681.231 626.964,682.064 628.5,683.5C 628.207,681.953 628.707,680.286 630,678.5C 631.518,678.943 632.685,678.276 633.5,676.5C 634.922,677.398 636.255,678.398 637.5,679.5C 637.5,685.167 637.5,690.833 637.5,696.5C 613.167,696.5 588.833,696.5 564.5,696.5C 564.5,629.833 564.5,563.167 564.5,496.5C 564.5,480.5 564.5,464.5 564.5,448.5C 550.323,448.829 536.323,448.496 522.5,447.5C 523.239,447.631 523.906,447.464 524.5,447C 523.336,380.57 523.169,314.07 524,247.5C 524.671,248.252 525.504,248.586 526.5,248.5 Z"/></g>
<g><path style="opacity:1" fill="#8d795e" d="M 448.5,333.5 C 447.492,335.339 445.992,336.672 444,337.5C 443.383,338.449 443.549,339.282 444.5,340C 443.241,340.923 441.908,341.757 440.5,342.5C 441.376,343.251 442.376,343.751 443.5,344C 441.32,344.419 439.154,344.252 437,343.5C 435.105,343.615 433.438,344.282 432,345.5C 431.312,346.332 431.479,346.998 432.5,347.5C 433.807,345.193 435.14,345.36 436.5,348C 433.61,349.892 433.944,350.725 437.5,350.5C 437.351,349.448 437.517,348.448 438,347.5C 440.042,349.51 439.709,351.176 437,352.5C 435.703,351.216 434.536,351.383 433.5,353C 434.833,353.333 436.167,353.667 437.5,354C 434.876,354.576 434.209,355.91 435.5,358C 434.833,358.667 434.167,359.333 433.5,360C 434.949,361.117 436.616,361.784 438.5,362C 436.899,362.273 435.399,362.773 434,363.5C 433.667,363.167 433.333,362.833 433,362.5C 432.878,364.169 433.212,365.835 434,367.5C 435.666,368.34 435.833,367.84 434.5,366C 435.931,365.535 437.097,364.701 438,363.5C 438.333,363.833 438.667,364.167 439,364.5C 439.667,361.833 440.333,361.833 441,364.5C 441.849,361.479 443.349,360.979 445.5,363C 444.044,363.423 443.544,364.256 444,365.5C 445.388,364.446 446.888,364.28 448.5,365C 446.132,365.79 443.966,366.956 442,368.5C 441.747,367.465 440.914,366.465 439.5,365.5C 438.432,367.187 438.599,368.854 440,370.5C 440.333,370.167 440.667,369.833 441,369.5C 443.734,370.362 443.901,371.195 441.5,372C 443.019,373.351 444.352,374.851 445.5,376.5C 447.483,375.018 449.316,373.351 451,371.5C 451.626,373.991 452.459,373.991 453.5,371.5C 454.696,371.846 454.696,372.346 453.5,373C 454.825,372.852 455.992,373.018 457,373.5C 458.615,375.011 458.615,376.344 457,377.5C 456.492,375.096 455.325,374.429 453.5,375.5C 455.982,379.398 458.482,379.398 461,375.5C 460.667,377.833 460.333,380.167 460,382.5C 460.903,381.299 462.069,380.465 463.5,380C 463.043,379.586 462.709,379.086 462.5,378.5C 463.035,376.729 463.869,376.396 465,377.5C 465.317,375.699 465.984,375.366 467,376.5C 467.772,375.151 468.939,374.318 470.5,374C 469.5,373.667 468.5,373.333 467.5,373C 468.956,372.577 469.456,371.744 469,370.5C 467.667,371.167 466.667,372.167 466,373.5C 465.667,372.833 465.333,372.167 465,371.5C 464.086,372.654 463.253,372.487 462.5,371C 463.458,369.853 463.125,368.853 461.5,368C 457.99,368.82 457.157,367.653 459,364.5C 459.423,365.956 460.256,366.456 461.5,366C 460.167,365.333 460.167,364.667 461.5,364C 460.833,363.667 460.167,363.333 459.5,363C 461.5,362.667 463.5,362.333 465.5,362C 466.833,361.333 466.833,360.667 465.5,360C 466.951,360.263 468.284,360.096 469.5,359.5C 469.291,358.914 468.957,358.414 468.5,358C 470.932,356.913 470.598,356.413 467.5,356.5C 467.343,355.127 467.51,353.793 468,352.5C 468.065,354.883 468.898,355.55 470.5,354.5C 470.827,351.021 471.327,347.687 472,344.5C 472.499,350.491 472.666,356.491 472.5,362.5C 467.318,362.557 467.318,363.224 472.5,364.5C 470.54,366.156 468.54,367.823 466.5,369.5C 466.667,369.833 466.833,370.167 467,370.5C 468.996,370.004 470.663,369.004 472,367.5C 472.667,375.167 472.667,382.833 472,390.5C 469.816,391.108 467.816,390.441 466,388.5C 464.282,390.819 462.782,393.319 461.5,396C 461.85,397.257 462.517,397.591 463.5,397C 463.167,396.667 462.833,396.333 462.5,396C 463.991,394.09 465.491,392.923 467,392.5C 468.5,394.833 470,397.167 471.5,399.5C 471.333,400.167 471.167,400.833 471,401.5C 468.753,399.511 467.253,397.511 466.5,395.5C 465.614,396.325 465.281,397.325 465.5,398.5C 463.833,398.5 462.167,398.5 460.5,398.5C 460.646,396.058 459.813,395.391 458,396.5C 456.242,395.531 455.742,394.364 456.5,393C 455.1,391.562 453.433,390.729 451.5,390.5C 451.33,391.822 451.663,392.989 452.5,394C 451.5,394.333 450.5,394.667 449.5,395C 450.696,395.654 450.696,396.154 449.5,396.5C 446.648,395.86 443.648,395.694 440.5,396C 442.059,395.02 443.726,394.187 445.5,393.5C 444.133,393.496 442.633,392.83 441,391.5C 439.693,392.772 438.193,393.772 436.5,394.5C 437.167,395.5 437.833,396.5 438.5,397.5C 437.22,399.702 437.22,401.868 438.5,404C 437.667,404.833 436.833,405.667 436,406.5C 436.077,405.262 435.911,404.262 435.5,403.5C 434.201,405.307 434.368,406.973 436,408.5C 438.173,405.723 438.673,405.89 437.5,409C 438.744,409.456 439.577,408.956 440,407.5C 440.448,409.224 441.282,409.891 442.5,409.5C 441.372,410.262 440.205,410.929 439,411.5C 436.871,410.137 436.371,410.471 437.5,412.5C 436.726,413.711 435.893,413.711 435,412.5C 434.667,413.167 434.333,413.833 434,414.5C 433.002,411.972 432.169,411.972 431.5,414.5C 431.482,416.373 431.982,416.706 433,415.5C 434.418,418.001 435.418,417.668 436,414.5C 436.451,418.195 436.951,421.695 437.5,425C 436.584,425.374 435.75,425.874 435,426.5C 434.581,425.328 433.915,424.328 433,423.5C 432.026,425.878 431.359,425.544 431,422.5C 430.222,424.584 429.055,426.417 427.5,428C 428.227,429.399 428.727,430.899 429,432.5C 429.192,430.423 429.692,428.423 430.5,426.5C 430.296,427.529 430.796,428.529 432,429.5C 432.805,427.099 433.638,427.266 434.5,430C 433.327,433.11 433.827,433.277 436,430.5C 434.863,434.936 436.196,435.603 440,432.5C 440.654,433.696 441.154,433.696 441.5,432.5C 436.298,431.518 436.298,430.352 441.5,429C 440.5,428.667 439.5,428.333 438.5,428C 438.982,426.992 439.148,425.825 439,424.5C 440.713,425.878 442.047,427.545 443,429.5C 443.98,427.941 444.813,426.274 445.5,424.5C 446.955,422.056 448.621,421.556 450.5,423C 449.151,423.772 448.318,424.939 448,426.5C 447.333,425.167 446.667,425.167 446,426.5C 445.508,427.549 445.674,428.549 446.5,429.5C 445.624,430.251 444.624,430.751 443.5,431C 444.428,431.388 445.095,432.055 445.5,433C 444.107,434.301 443.607,435.801 444,437.5C 445.171,436.107 446.671,435.273 448.5,435C 447.304,434.346 447.304,433.846 448.5,433.5C 451.603,436.581 453.436,435.914 454,431.5C 455.113,432.76 455.28,433.927 454.5,435C 455.448,435.483 456.448,435.649 457.5,435.5C 457.539,437.359 456.706,438.692 455,439.5C 454.667,438.5 454.333,437.5 454,436.5C 453.727,438.329 452.893,439.829 451.5,441C 452.167,441.333 452.833,441.667 453.5,442C 452.019,442.98 450.685,444.147 449.5,445.5C 450.98,446.113 452.313,446.446 453.5,446.5C 452.817,449.461 451.984,449.795 451,447.5C 450.105,449.804 449.271,452.138 448.5,454.5C 448.167,454.333 447.833,454.167 447.5,454C 450.872,445.866 448.872,444.033 441.5,448.5C 438.833,446.5 438.833,444.5 441.5,442.5C 441.205,443.826 441.705,445.159 443,446.5C 443.494,444.866 443.66,443.199 443.5,441.5C 441.801,441.34 440.134,441.506 438.5,442C 438.833,442.333 439.167,442.667 439.5,443C 438.747,444.487 437.914,444.654 437,443.5C 435.933,445.283 434.433,445.783 432.5,445C 433.624,444.751 434.624,444.251 435.5,443.5C 433.33,442.203 431.163,442.87 429,445.5C 428.692,444.692 428.192,444.025 427.5,443.5C 428.034,445.297 427.367,446.964 425.5,448.5C 426.002,449.521 426.668,449.688 427.5,449C 428.047,448.075 428.713,447.242 429.5,446.5C 429.489,447.441 429.989,448.108 431,448.5C 434.131,446.172 437.131,446.505 440,449.5C 440.72,451.112 440.554,452.612 439.5,454C 440.308,454.308 440.975,454.808 441.5,455.5C 440.482,456.852 439.149,457.852 437.5,458.5C 438.025,459.192 438.692,459.692 439.5,460C 438.584,460.374 437.75,460.874 437,461.5C 436.07,459.034 435.237,459.201 434.5,462C 435.971,462.112 437.138,463.279 438,465.5C 438.967,464.322 439.467,462.989 439.5,461.5C 440.424,463.39 441.757,464.89 443.5,466C 441.391,467.141 439.558,468.641 438,470.5C 437.751,469.376 437.251,468.376 436.5,467.5C 435.1,469.782 435.766,471.282 438.5,472C 437.022,473.193 435.688,473.693 434.5,473.5C 436.205,475.303 438.038,475.969 440,475.5C 440.311,476.742 439.811,477.742 438.5,478.5C 439.603,478.998 440.603,479.331 441.5,479.5C 439.243,481.957 438.243,484.624 438.5,487.5C 439.89,489.203 441.39,489.87 443,489.5C 442.333,488.167 441.667,486.833 441,485.5C 442.268,485.616 443.602,485.949 445,486.5C 445.456,485.256 444.956,484.423 443.5,484C 444.167,483.667 444.833,483.333 445.5,483C 443.892,482.342 442.725,482.842 442,484.5C 441.289,482.633 441.789,481.133 443.5,480C 443.167,479.667 442.833,479.333 442.5,479C 443.5,478.5 444.5,478 445.5,477.5C 446.721,474.403 448.721,474.237 451.5,477C 450.451,477.492 449.451,477.326 448.5,476.5C 446.309,477.894 444.975,479.394 444.5,481C 448.804,481.031 452.804,482.031 456.5,484C 455.354,484.645 454.354,485.478 453.5,486.5C 454.016,485.242 453.35,484.242 451.5,483.5C 451.167,484.167 450.833,484.833 450.5,485.5C 450.096,489.097 450.096,492.597 450.5,496C 451.833,496.667 453.167,496.667 454.5,496C 453.773,494.601 453.273,493.101 453,491.5C 452.667,491.833 452.333,492.167 452,492.5C 451.333,491.5 451.333,490.5 452,489.5C 453.011,490.337 454.178,490.67 455.5,490.5C 455.693,486.551 456.193,486.551 457,490.5C 457.428,485.502 458.261,485.335 459.5,490C 459.167,490.333 458.833,490.667 458.5,491C 460.087,491.862 461.754,492.529 463.5,493C 461.446,493.015 459.446,493.848 457.5,495.5C 458.167,496.5 458.833,497.5 459.5,498.5C 458.609,499.59 457.609,499.59 456.5,498.5C 455.757,499.908 454.923,501.241 454,502.5C 451.171,501.326 450.171,502.326 451,505.5C 451.677,507.689 452.844,508.022 454.5,506.5C 455.556,504.354 457.056,502.688 459,501.5C 460.059,501.63 460.892,502.13 461.5,503C 457.303,502.677 456.97,503.51 460.5,505.5C 459.478,506.354 458.645,507.354 458,508.5C 457.667,508.167 457.333,507.833 457,507.5C 455.013,508.218 453.179,509.218 451.5,510.5C 452.167,510.833 452.833,511.167 453.5,511.5C 449.624,513.516 449.624,514.349 453.5,514C 451.74,516.483 449.573,516.983 447,515.5C 446.437,516.725 446.77,517.725 448,518.5C 449,518.167 450,517.833 451,517.5C 451.5,518 452,518.5 452.5,519C 451.675,520.688 450.675,520.855 449.5,519.5C 447.5,520.5 445.5,521.5 443.5,522.5C 442.304,522.154 442.304,521.654 443.5,521C 439.528,520.236 437.861,518.069 438.5,514.5C 436.729,515.035 436.396,515.869 437.5,517C 435.905,516.383 434.572,516.716 433.5,518C 435.75,518.611 437.417,519.944 438.5,522C 438,522.5 437.5,523 437,523.5C 436.549,521.071 435.715,520.904 434.5,523C 436.891,524.309 436.891,525.309 434.5,526C 436.218,526.346 437.885,526.846 439.5,527.5C 440.842,526.098 441.676,526.431 442,528.5C 443.676,527.9 445.343,526.567 447,524.5C 447.308,525.308 447.808,525.975 448.5,526.5C 450.847,524.321 452.847,521.821 454.5,519C 455.355,517.549 455.522,516.049 455,514.5C 458.712,517.244 459.212,516.744 456.5,513C 457.126,512.25 457.626,511.416 458,510.5C 458.471,512.246 459.138,513.913 460,515.5C 461,513.833 462,512.167 463,510.5C 463.561,511.022 464.228,511.355 465,511.5C 467.283,510.189 469.449,509.522 471.5,509.5C 472.392,529.467 472.558,549.467 472,569.5C 471.632,568.09 470.799,567.09 469.5,566.5C 469.704,567.529 469.204,568.529 468,569.5C 467.667,568.5 467.333,567.5 467,566.5C 466.576,568.615 465.409,569.448 463.5,569C 465.167,566.667 466.833,564.333 468.5,562C 467.692,561.692 467.025,561.192 466.5,560.5C 467.002,559.284 467.335,558.117 467.5,557C 467,556.5 466.5,556 466,555.5C 465.691,556.766 465.191,557.933 464.5,559C 465.821,560.545 465.488,561.711 463.5,562.5C 460.464,560.964 458.297,558.631 457,555.5C 456.349,557.235 456.515,558.902 457.5,560.5C 456.731,562.801 455.731,562.967 454.5,561C 455.747,559.542 455.747,558.042 454.5,556.5C 453.265,554.585 451.932,553.585 450.5,553.5C 451.833,552.833 453.167,552.167 454.5,551.5C 452.398,551.521 450.232,551.187 448,550.5C 448.991,552.447 449.325,554.447 449,556.5C 450.364,555.742 451.531,556.242 452.5,558C 450.336,558.914 448.336,560.081 446.5,561.5C 447.376,562.251 448.376,562.751 449.5,563C 448.319,566.218 446.319,568.718 443.5,570.5C 444.529,570.296 445.529,570.796 446.5,572C 444.044,574.159 444.71,574.992 448.5,574.5C 448.185,572.774 448.019,571.107 448,569.5C 448.92,569.93 449.753,570.264 450.5,570.5C 450.167,571.167 449.833,571.833 449.5,572.5C 450.167,572.833 450.833,573.167 451.5,573.5C 450.902,574.795 450.402,576.128 450,577.5C 449.195,575.099 448.362,575.266 447.5,578C 448.76,579.113 449.927,579.28 451,578.5C 451.444,582.229 449.944,583.563 446.5,582.5C 447.326,581.549 447.492,580.549 447,579.5C 446.667,579.833 446.333,580.167 446,580.5C 445.077,579.241 444.243,577.908 443.5,576.5C 442.52,577.981 441.353,579.315 440,580.5C 439.667,579.833 439.333,579.167 439,578.5C 437.272,580.194 437.772,581.361 440.5,582C 439.093,583.452 437.593,583.285 436,581.5C 435.544,582.744 436.044,583.577 437.5,584C 436.747,585.487 435.914,585.654 435,584.5C 433.741,586.641 433.741,588.974 435,591.5C 436.42,589.578 438.253,588.245 440.5,587.5C 440.977,586.069 441.643,584.736 442.5,583.5C 442.833,583.667 443.167,583.833 443.5,584C 442.74,585.441 442.074,586.941 441.5,588.5C 443.972,589.896 446.638,590.73 449.5,591C 449.982,592.008 450.148,593.175 450,594.5C 451.067,593.809 452.234,593.309 453.5,593C 451.068,591.913 451.402,591.413 454.5,591.5C 454.703,593.39 454.037,594.89 452.5,596C 453.328,596.915 454.328,597.581 455.5,598C 454.809,599.067 454.309,600.234 454,601.5C 453.585,599.709 452.585,598.376 451,597.5C 450.383,598.449 450.549,599.282 451.5,600C 447.835,601.278 444.168,602.444 440.5,603.5C 440.419,608.093 442.419,610.093 446.5,609.5C 447.711,610.274 447.711,611.107 446.5,612C 447.328,612.915 448.328,613.581 449.5,614C 444.206,614.818 444.206,615.318 449.5,615.5C 449.33,616.822 449.663,617.989 450.5,619C 449.5,619.833 448.5,620.667 447.5,621.5C 448.274,622.711 449.107,622.711 450,621.5C 450.5,622.5 451,623.5 451.5,624.5C 450.147,625.524 449.48,626.857 449.5,628.5C 450.822,628.67 451.989,628.337 453,627.5C 453.309,628.766 453.809,629.933 454.5,631C 454.167,631.167 453.833,631.333 453.5,631.5C 452.572,629.665 451.406,629.332 450,630.5C 447.822,629.107 446.822,627.44 447,625.5C 446.044,626.579 445.211,627.745 444.5,629C 443.551,629.617 442.718,629.451 442,628.5C 441.667,629.167 441.333,629.833 441,630.5C 439.445,628.854 437.779,628.521 436,629.5C 435.544,628.256 436.044,627.423 437.5,627C 436.044,626.577 435.544,625.744 436,624.5C 437.309,622.024 439.142,620.024 441.5,618.5C 440.821,616.412 440.488,614.412 440.5,612.5C 439.719,613.729 439.219,615.062 439,616.5C 438.632,615.09 437.799,614.09 436.5,613.5C 436.874,614.771 436.208,615.938 434.5,617C 435.578,617.674 436.245,618.674 436.5,620C 435.086,622.951 434.253,626.118 434,629.5C 432.5,630.333 431.333,631.5 430.5,633C 433.089,634.657 435.756,634.991 438.5,634C 437.833,634.667 437.167,635.333 436.5,636C 437.64,637.973 438.973,639.807 440.5,641.5C 440.417,639.908 440.751,638.241 441.5,636.5C 441.182,635.353 440.516,634.519 439.5,634C 440.667,633.5 441.5,632.667 442,631.5C 445.059,636.605 447.892,636.605 450.5,631.5C 450.833,631.833 451.167,632.167 451.5,632.5C 449.337,634.773 449.171,637.107 451,639.5C 452.806,637.694 454.64,635.86 456.5,634C 455.273,632.413 455.606,631.079 457.5,630C 454.046,629.707 453.712,628.374 456.5,626C 455.253,624.506 455.253,623.006 456.5,621.5C 456.911,622.262 457.077,623.262 457,624.5C 457.333,624.167 457.667,623.833 458,623.5C 458.814,625.282 459.981,626.782 461.5,628C 460.72,629.073 460.887,630.24 462,631.5C 463.351,627.95 465.517,625.95 468.5,625.5C 466.896,621.991 465.396,622.324 464,626.5C 463.969,623.75 463.302,621.083 462,618.5C 462.605,620.481 463.605,620.815 465,619.5C 466.434,621.136 468.267,622.136 470.5,622.5C 470.669,621.603 471.002,620.603 471.5,619.5C 472.666,631.152 472.833,642.819 472,654.5C 471.667,655.167 471.333,655.833 471,656.5C 469.988,654.136 468.655,652.802 467,652.5C 466.691,653.766 466.191,654.933 465.5,656C 466.938,656.219 468.271,656.719 469.5,657.5C 467.268,657.567 464.934,658.4 462.5,660C 463.696,660.654 463.696,661.154 462.5,661.5C 462.167,661 461.833,660.5 461.5,660C 462.083,656.415 462.083,653.082 461.5,650C 463.915,650.055 466.248,650.388 468.5,651C 467.833,650.667 467.167,650.333 466.5,650C 467.731,648.817 467.731,647.651 466.5,646.5C 465.276,645.234 463.943,644.067 462.5,643C 463.448,642.517 464.448,642.351 465.5,642.5C 465.649,641.448 465.483,640.448 465,639.5C 464.309,641.891 463.309,641.891 462,639.5C 461.026,641.878 460.359,641.544 460,638.5C 458.798,640.553 458.464,642.553 459,644.5C 458.302,646.681 456.469,648.348 453.5,649.5C 453.846,650.696 454.346,650.696 455,649.5C 456.523,651.83 457.023,654.164 456.5,656.5C 458.149,657.148 459.482,658.148 460.5,659.5C 457.662,660.512 456.329,662.512 456.5,665.5C 457.873,665.343 459.207,665.51 460.5,666C 459.692,666.308 459.025,666.808 458.5,667.5C 459.529,667.296 460.529,667.796 461.5,669C 459.699,669.317 459.366,669.984 460.5,671C 458.196,671.895 455.862,672.729 453.5,673.5C 455.478,673.738 457.145,675.071 458.5,677.5C 459.5,677.167 460.167,676.5 460.5,675.5C 459.674,674.549 459.508,673.549 460,672.5C 461.319,674.25 461.819,676.25 461.5,678.5C 460.5,678.5 459.5,678.5 458.5,678.5C 458.67,679.822 458.337,680.989 457.5,682C 455.5,683 453.5,684 451.5,685C 452.624,685.249 453.624,685.749 454.5,686.5C 453.726,687.711 452.893,687.711 452,686.5C 449.949,689.394 450.615,690.061 454,688.5C 455.085,690.657 456.251,690.824 457.5,689C 455.598,687.606 455.265,685.773 456.5,683.5C 457.5,683.5 458.5,683.5 459.5,683.5C 459.343,682.127 459.51,680.793 460,679.5C 460.251,681.433 460.751,683.266 461.5,685C 460.377,686.044 459.044,686.71 457.5,687C 459.025,688.009 460.692,688.509 462.5,688.5C 462.281,687.325 462.614,686.325 463.5,685.5C 464.635,686.103 465.635,686.436 466.5,686.5C 466.023,687.478 465.357,688.311 464.5,689C 463.911,690.873 464.578,692.54 466.5,694C 465.318,695.678 464.152,695.512 463,693.5C 460.477,696.093 457.143,696.093 453,693.5C 451.647,694.704 449.981,695.371 448,695.5C 443.459,695.463 439.292,694.296 435.5,692C 436.386,690.783 437.386,689.449 438.5,688C 437.572,687.612 436.905,686.945 436.5,686C 437.187,684.838 437.353,683.672 437,682.5C 436.1,684.398 434.934,686.064 433.5,687.5C 432.481,686.313 431.314,685.313 430,684.5C 429.228,685.849 428.061,686.682 426.5,687C 427.667,687.5 428.5,688.333 429,689.5C 429.419,688.328 430.085,687.328 431,686.5C 433.715,691.806 432.049,694.806 426,695.5C 423.83,694.666 421.83,694.333 420,694.5C 419.283,695.044 418.783,695.711 418.5,696.5C 403.5,696.5 388.5,696.5 373.5,696.5C 373.333,592.166 373.5,487.833 374,383.5C 374.717,382.956 375.217,382.289 375.5,381.5C 399.312,364.757 423.645,348.757 448.5,333.5 Z"/></g>
<g><path style="opacity:1" fill="#fefefe" d="M 475.5,548.5 C 491.167,548.5 506.833,548.5 522.5,548.5C 522.5,598.167 522.5,647.833 522.5,697.5C 521.5,648.905 521.167,599.572 521.5,549.5C 506.5,549.5 491.5,549.5 476.5,549.5C 476.667,598.834 476.5,648.168 476,697.5C 475.5,647.834 475.333,598.168 475.5,548.5 Z"/></g>
<g><path style="opacity:1" fill="#53380e" d="M 473.5,316.5 C 474.499,375.664 474.832,434.998 474.5,494.5C 474.5,495.167 474.5,495.833 474.5,496.5C 474.5,513.833 474.5,531.167 474.5,548.5C 474.5,598.167 474.5,647.833 474.5,697.5C 440.5,697.5 406.5,697.5 372.5,697.5C 372.5,592.5 372.5,487.5 372.5,382.5C 373.391,381.89 374.391,381.557 375.5,381.5C 375.217,382.289 374.717,382.956 374,383.5C 373.5,487.833 373.333,592.166 373.5,696.5C 388.5,696.5 403.5,696.5 418.5,696.5C 436.833,696.5 455.167,696.5 473.5,696.5C 473.5,569.833 473.5,443.167 473.5,316.5 Z"/></g>
<g><path style="opacity:1" fill="#b79763" d="M 564.5,696.5 C 564.5,696.833 564.5,697.167 564.5,697.5C 550.833,697.5 537.167,697.5 523.5,697.5C 523.167,697.5 522.833,697.5 522.5,697.5C 522.5,647.833 522.5,598.167 522.5,548.5C 523.5,597.095 523.833,646.428 523.5,696.5C 537.167,696.5 550.833,696.5 564.5,696.5 Z"/></g>
</svg>
